<?xml version="1.0" encoding="UTF-8"?>
<svg width="51px" height="50px" viewBox="0 0 51 50" version="1.1" xmlns="http://www.w3.org/2000/svg" xmlns:xlink="http://www.w3.org/1999/xlink">
  <title>FB25152B-A2B4-4B1C-9032-13C5D5BCF949</title>
  <desc>Created with sketchtool.</desc>
  <defs>
    <path d="M25.6844717,35.4928622 C24.7284468,34.5341603 23.1511918,34.5653275 22.1654075,35.5601833 L19.7524057,37.9899751 C19.6011281,37.9064471 19.4424106,37.8166857 19.2774932,37.7244309 C17.7523174,36.8716974 15.6691504,35.7085389 13.4743851,33.4956705 C11.27466,31.2790621 10.1165183,29.1746554 9.27085173,27.6362443 C9.17909318,27.4754217 9.09477452,27.3195859 9.01169583,27.1687369 L10.6286302,25.5418111 L11.4259376,24.738945 C12.412962,23.7403492 12.4427215,22.1520707 11.4904166,21.1921221 L6.70037245,16.3674456 C5.75178748,15.4074971 4.1720525,15.4374176 3.18254818,16.4347667 L1.83468953,17.801135 L1.86940898,17.8385356 C1.41681615,18.4207382 1.03986212,19.0914555 0.759626562,19.8132869 C0.499230688,20.5039512 0.336793261,21.160955 0.2648744,21.816712 C-0.368755562,27.0989224 2.02688649,31.9248456 8.52438355,38.4749361 C17.5092812,47.5246329 24.7507665,46.8439421 25.0644815,46.8090349 C25.7427508,46.729247 26.3949804,46.5646844 27.0583699,46.3053736 C27.7701187,46.0248692 28.4359881,45.6458765 29.011339,45.1895893 L29.0398585,45.2170164 L30.4100368,43.8681016 C31.3933413,42.8695058 31.4231008,41.2812273 30.4707959,40.3187854 L25.6844717,35.4928622 Z M32.3946864,19.1203962 L32.3946864,20.6666667 L30.1292796,20.6666667 L30.1292796,19.1203962 L26.1666667,19.1203962 L26.1666667,17.7012164 L30.5557382,10.8333333 L32.3946864,10.8333333 L32.3946864,17.1704257 L33.6666667,17.1704257 L33.6666667,19.1203962 L32.3946864,19.1203962 Z M25.5,20.6666667 L18.9311904,20.6666667 L18.9039391,19.1579167 L21.826025,16.0154167 C22.247182,15.5654167 22.5568562,15.1791667 22.7525703,14.8529167 C22.9495231,14.5279167 23.0498575,14.2016667 23.0498575,13.8754167 C23.0498575,13.5666667 22.9507618,13.3104167 22.7562864,13.1091667 C22.561811,12.9079167 22.3128329,12.8066667 22.0081135,12.8066667 C21.413539,12.8066667 20.9081506,13.1129167 20.4907098,13.7266667 L18.8333333,12.5329167 C18.9881704,12.2666667 19.1677815,12.0241667 19.3758826,11.8066667 C19.5815063,11.5891667 19.8205748,11.3929167 20.0943268,11.2191667 C20.3680788,11.0416667 20.6851852,10.9079167 21.045646,10.8104167 C21.4061068,10.7141667 21.7925802,10.6666667 22.2050663,10.6666667 C22.4441348,10.6666667 22.6807259,10.6891667 22.9111235,10.7329167 C23.1427598,10.7779167 23.3644866,10.8429167 23.575065,10.9291667 C23.7856435,11.0166667 23.983835,11.1216667 24.1684008,11.2454167 C24.3529667,11.3704167 24.5226682,11.5141667 24.6750279,11.6804167 C24.8261489,11.8479167 24.9574508,12.0266667 25.0652174,12.2216667 C25.1717453,12.4166667 25.254738,12.6316667 25.3154342,12.8666667 C25.3736529,13.1029167 25.4009042,13.3504167 25.4009042,13.6066667 C25.4009042,14.0041667 25.3587886,14.3616667 25.2745572,14.6766667 C25.1903258,14.9929167 25.0305339,15.3379167 24.7951815,15.7091667 C24.5573517,16.0804167 24.2241422,16.4916667 23.7930757,16.9404167 L22.2546141,18.5404167 L22.2546141,18.5629167 L25.5,18.5629167 L25.5,20.6666667 Z M41.7914359,19.5 C46.28344,19.8083023 49.8333333,23.5214415 49.8333333,28.0685938 C49.8333333,32.8171866 45.9636409,36.6666667 41.1901148,36.6666667 C36.885792,36.6666667 33.3284903,33.5345115 32.6666667,29.4393723 C35.6782109,28.2516099 38.2193172,26.1549084 39.9553693,23.482136 L39.9553693,23.482136 L39.9553693,24.9364387 L42.8570213,24.9364387 L40.4789014,31.4058744 L42.3334892,31.7534822 L44.8943513,24.4279241 L44.8943513,23.1554093 L40.1553981,23.1554093 C40.8493251,22.0229202 41.4074301,20.8007656 41.7914359,19.5 Z M26.1666667,3.33333333 C32.9796,3.33333333 38.5,8.892275 38.5,15.75 C38.5,17.29215 38.2077,18.7622833 37.6983333,20.1256333 C36.7141333,22.7517583 34.8764667,24.9482667 32.5183333,26.3799083 C30.6621667,27.5061 28.4939667,28.1666667 26.1666667,28.1666667 C19.3549667,28.1666667 13.8333333,22.6089667 13.8333333,15.75 C13.8333333,8.892275 19.3549667,3.33333333 26.1666667,3.33333333 Z M30.1666667,14.5 L28.5,17.3333333 L30.1666667,17.3333333 L30.1666667,14.5 Z" id="path-1"></path>
  </defs>
  <g id="Asset-Artboard-Page" stroke="none" stroke-width="1" fill="none" fill-rule="evenodd">
    <g id="Icon/Airplane2-Copy-2-Icon/24hrs" transform="translate(0.993493, 0.000000)">
      <mask id="mask-2" fill="white">
        <use xlink:href="#path-1"></use>
      </mask>
      <use id="Mask" fill="#EE2E24" xlink:href="#path-1"></use>
      <g id="Color/Green00A0D-Color/Red-EE2E4" mask="url(#mask-2)" fill="#EE2E24">
        <rect id="EE2E24" x="0" y="0" width="50" height="50"></rect>
      </g>
    </g>
  </g>
</svg>