<?xml version="1.0" encoding="UTF-8"?>
<svg width="51px" height="50px" viewBox="0 0 51 50" version="1.1" xmlns="http://www.w3.org/2000/svg" xmlns:xlink="http://www.w3.org/1999/xlink">
  <title>226DDE7E-9897-4212-A31D-0EEACE67B23C</title>
  <desc>Created with sketchtool.</desc>
  <defs>
    <path d="M47.0910288,27.0452405 C46.242036,26.3424033 45.2846904,25.7644844 44.2505376,25.3430566 C42.972248,24.8214196 41.5732614,24.5345192 40.1084403,24.5345192 C34.0489084,24.5345192 29.135997,29.4516344 29.135997,35.5163511 L29.135997,39.634538 L27.8892531,39.634538 L4.57281111,39.634538 C2.23156602,39.634538 0.333333333,37.7223265 0.333333333,35.3626054 L0.333333333,21.7890612 C0.333333333,21.0313148 0.947790157,20.4163322 1.70488874,20.4163322 L27.8892531,20.4163322 L45.7194734,20.4163322 C46.476572,20.4163322 47.0910288,21.0313148 47.0910288,21.7890612 L47.0910288,27.0452405 Z M8.58857649,1 L37.2507802,1 C39.5123646,1 41.3453808,2.86258101 41.3453808,5.16064262 L4.49397596,5.16064262 C4.49397596,2.86258101 6.32699213,1 8.58857649,1 L8.58857649,1 Z M47.0910288,12.6238449 L47.0910288,14.4725571 L0.333333333,14.4725571 L0.333333333,12.6238449 C0.333333333,10.5809693 2.23664659,8.92503357 4.58415795,8.92503357 L42.8402042,8.92503357 C45.1877156,8.92503357 47.0910288,10.5809693 47.0910288,12.6238449 L47.0910288,12.6238449 Z M47.2438506,36.4207535 C47.2438506,36.8545358 47.5384803,37.1730089 47.9084803,37.233409 C48.7635913,37.3748001 49.6666654,38.6281015 49.6666654,39.6562754 L49.6666654,47.2790386 C49.6666654,48.4060489 48.8814432,49.144577 47.9139617,49.144577 L34.974925,49.144577 C34.0060732,49.144577 33.2222214,48.4060489 33.2222214,47.2790386 L33.2222214,39.6562754 C33.2222214,38.6239833 34.1979251,37.365191 35.0530361,37.2320363 C35.4244065,37.1730089 35.7245176,36.8545358 35.7245176,36.4166353 L35.7245176,34.9615428 C35.7245176,32.389049 38.1555546,29.9291189 41.4444434,29.9263713 C44.7333322,29.923628 47.1999988,32.4947491 47.1999988,34.9615428 L47.2438506,36.4207535 Z M38.9678726,35.4394228 L38.9678726,35.8027856 C38.9678726,36.2479743 39.3062716,36.6626517 39.6613131,36.6626517 L43.8219557,36.6626517 C44.1769972,36.6626517 44.5153961,36.2479743 44.5153961,35.8027856 L44.5153961,35.4394228 C44.5153961,33.6572808 43.1285152,32.5020091 41.7416344,32.5020091 C40.3547535,32.5020091 38.9678726,33.5629729 38.9678726,35.4394228 L38.9678726,35.4394228 Z" id="path-1"></path>
  </defs>
  <g id="Asset-Artboard-Page" stroke="none" stroke-width="1" fill="none" fill-rule="evenodd">
    <g id="Icon/Airplane2-Icon/-Lock" transform="translate(0.593493, 0.000000)">
      <mask id="mask-2" fill="white">
        <use xlink:href="#path-1"></use>
      </mask>
      <use id="Mask" fill="#EE2E24" xlink:href="#path-1"></use>
      <g id="Color/Green00A0D-Color/Red-EE2E4" mask="url(#mask-2)" fill="#EE2E24">
        <rect id="EE2E24" x="0" y="0" width="50" height="50"></rect>
      </g>
    </g>
  </g>
</svg>