<?xml version="1.0" encoding="UTF-8"?>
<svg width="42px" height="42px" viewBox="0 0 42 42" version="1.1" xmlns="http://www.w3.org/2000/svg" xmlns:xlink="http://www.w3.org/1999/xlink">
  <title>B7B01C5D-520E-43DA-AD1C-29E8FDBD6A83</title>
  <desc>Created with sketchtool.</desc>
  <defs>
    <path d="M0.107496296,0.084086747 L0.107496296,8.04838554 L11.4618074,8.04838554 C10.9726815,10.6221108 9.48634074,12.8028145 7.25191111,14.2627084 L7.25191111,14.2627084 L7.25191111,19.4285494 L14.070163,19.4285494 C18.0596148,15.8442795 20.3612444,10.5658988 20.3612444,4.29559518 L20.3612444,4.29559518 C20.3612444,2.83558554 20.226963,1.43178795 19.9776,0.084086747 L19.9776,0.084086747 L0.107496296,0.084086747 Z" id="path-1"></path>
    <path d="M0.0982518519,0.105831325 L0.0982518519,5.44030843 C3.56977778,12.1693301 10.7045926,16.7831133 18.9519407,16.7831133 L18.9519407,16.7831133 C24.6481778,16.7831133 29.424,14.9394506 32.9146074,11.7948145 L32.9146074,11.7948145 L26.0963556,6.62897349 C24.2070519,7.8642506 21.7904593,8.59431325 18.9519407,8.59431325 L18.9519407,8.59431325 C13.4568296,8.59431325 8.80580741,4.97233735 7.14678519,0.105831325 L7.14678519,0.105831325 L0.0982518519,0.105831325 Z" id="path-3"></path>
    <path d="M2.3501037,0.0174650602 C0.921244444,2.79695422 0.106074074,5.94135904 0.106074074,9.26365301 L0.106074074,9.26365301 C0.106074074,12.5861783 0.921244444,15.7306988 2.3501037,18.510188 L2.3501037,18.510188 L9.39863704,13.1757108 C8.97659259,11.9403181 8.73694815,10.6208386 8.73694815,9.26365301 L8.73694815,9.26365301 C8.73694815,7.9066988 8.97659259,6.58721928 9.39863704,5.35182651 L9.39863704,5.35182651 L9.39863704,0.0174650602 L2.3501037,0.0174650602 Z" id="path-5"></path>
    <path d="M0.0982518519,11.3524048 L7.14678519,16.6867663 C8.80580741,11.8201446 13.4568296,8.1984 18.9519407,8.1984 L18.9519407,8.1984 C22.0494222,8.1984 24.8304593,9.23728193 27.0170074,11.2774554 L27.0170074,11.2774554 L33.0682074,5.37206747 C29.4144,2.04965783 24.6385778,0.00948433735 18.9519407,0.00948433735 L18.9519407,0.00948433735 C10.7045926,0.00948433735 3.56977778,4.62338313 0.0982518519,11.3524048 L0.0982518519,11.3524048 Z" id="path-7"></path>
  </defs>
  <g id="PCF-Public-Site:-JDP-EVP" stroke="none" stroke-width="1" fill="none" fill-rule="evenodd">
    <g id="9386-JDP-PCMC-Benefits_WorldElite-Mobile-R3" transform="translate(-21.000000, -7456.000000)">
      <g id="Group-Copy" transform="translate(0.000000, 6494.000000)">
        <g id="Group-1-Copy" transform="translate(21.000000, 962.000000)">
          <g id="Google">
            <path d="M41.4574696,21.1606786 C41.4574696,19.7006689 41.3231881,18.2968713 41.0739437,16.9491701 L21.2037215,16.9491701 L21.2037215,24.9134689 L32.5580326,24.9134689 C32.0690252,27.4871942 30.5825659,29.6678978 28.3482548,31.1277918 L28.3482548,36.2937484 L35.1665067,36.2937484 C39.15584,32.7093629 41.4574696,27.4310978 41.4574696,21.1606786" id="Fill-1" fill="#EE2E24"></path>
            <g id="Group-5" transform="translate(21.096296, 16.865118)">
              <mask id="mask-2" fill="white">
                <use xlink:href="#path-1"></use>
              </mask>
              <g id="Clip-4"></g>
              <polygon id="Fill-3" fill="#EE2E24" mask="url(#mask-2)" points="-11.6135111 30.8672386 32.0820148 30.8672386 32.0820148 -11.3543711 -11.6135111 -11.3543711"></polygon>
            </g>
            <path d="M21.203757,41.2820241 C26.9001126,41.2820241 31.6758163,39.4383614 35.1665422,36.2937253 L28.3481719,31.1277687 C26.4588681,32.3631614 24.0422756,33.0931084 21.203757,33.0931084 C15.7086459,33.0931084 11.0576237,29.4712482 9.39860148,24.6047422 L2.35006815,24.6047422 L2.35006815,29.9392193 C5.82159407,36.6681253 12.9564089,41.2820241 21.203757,41.2820241" id="Fill-6" fill="#EE2E24"></path>
            <g id="Group-10" transform="translate(2.251852, 24.498853)">
              <mask id="mask-4" fill="white">
                <use xlink:href="#path-3"></use>
              </mask>
              <g id="Clip-9"></g>
              <polygon id="Fill-8" fill="#EE2E24" mask="url(#mask-4)" points="-11.622637 28.2216867 44.6356148 28.2216867 44.6356148 -11.3326265 -11.622637 -11.3326265"></polygon>
            </g>
            <path d="M9.39861333,24.6046959 C8.97656889,23.3693031 8.73692444,22.0498236 8.73692444,20.6927537 C8.73692444,19.3356839 8.97656889,18.0162043 9.39861333,16.7808116 L9.39861333,11.4463345 L2.35008,11.4463345 C0.921220741,14.2259393 0.10605037,17.3703441 0.10605037,20.6927537 C0.10605037,24.0150477 0.921220741,27.1596839 2.35008,29.939173 L9.39861333,24.6046959 Z" id="Fill-11" fill="#EE2E24"></path>
            <g id="Group-15" transform="translate(0.000000, 11.428973)">
              <mask id="mask-6" fill="white">
                <use xlink:href="#path-5"></use>
              </mask>
              <g id="Clip-14"></g>
              <polygon id="Fill-13" fill="#EE2E24" mask="url(#mask-6)" points="-11.6148148 29.9486458 21.1195259 29.9486458 21.1195259 -11.4212241 -11.6148148 -11.4212241"></polygon>
            </g>
            <path d="M21.203757,8.29242217 C24.3012385,8.29242217 27.0823941,9.33118843 29.2688237,11.3714776 L35.3199052,5.46608964 C31.6662163,2.14368 26.8903941,0.103506506 21.203757,0.103506506 C12.9564089,0.103506506 5.82159407,4.7174053 2.35006815,11.446427 L9.39860148,16.7807884 C11.0576237,11.9141667 15.7086459,8.29242217 21.203757,8.29242217" id="Fill-16" fill="#EE2E24"></path>
            <g id="Group-20" transform="translate(2.251852, 0.094034)">
              <mask id="mask-8" fill="white">
                <use xlink:href="#path-7"></use>
              </mask>
              <g id="Clip-19"></g>
              <polygon id="Fill-18" fill="#EE2E24" mask="url(#mask-8)" points="-11.622637 28.1252241 44.7890963 28.1252241 44.7890963 -11.4289735 -11.622637 -11.4289735"></polygon>
            </g>
          </g>
        </g>
      </g>
    </g>
  </g>
</svg>