<?xml version="1.0" encoding="utf-8"?>
<!-- Generator: Adobe Illustrator 24.0.0, SVG Export Plug-In . SVG Version: 6.00 Build 0)  -->
<svg version="1.1" id="Layer_1" xmlns="http://www.w3.org/2000/svg" xmlns:xlink="http://www.w3.org/1999/xlink" x="0px" y="0px" viewBox="0 0 300 300" style="enable-background:new 0 0 300 300;" xml:space="preserve">
  <style type="text/css">
	.st0{clip-path:url(#SVGID_2_);fill:#FF0000;}
</style>
  <title>Icon/Magnifying</title>
  <desc>Created with Sketch.</desc>
  <g>
    <g>
      <defs>
        <path id="SVGID_1_" d="M112.5,188.4c-41.8,0-75.5-33.7-75.5-75.5s33.7-75.5,75.5-75.5S188,71.1,188,112.9
				S154.3,188.4,112.5,188.4z M212.7,188h-13.2l-4.7-4.5c16.4-19,26.2-43.7,26.2-70.6C221,53,172.5,4.4,112.5,4.4
				C52.6,4.4,4,53,4,112.9s48.6,108.5,108.5,108.5c26.9,0,51.6-9.9,70.6-26.2l4.5,4.7v13.2l83.5,83.3l24.9-24.9L212.7,188z" />
      </defs>
      <clipPath id="SVGID_2_">
        <use xlink:href="#SVGID_1_" style="overflow:visible;" />
      </clipPath>
      <rect x="-1" y="-0.6" class="st0" width="302" height="302" />
    </g>
  </g>
</svg>