<?xml version="1.0" encoding="UTF-8"?>
<svg width="95px" height="95px" viewBox="0 0 95 95" version="1.1" xmlns="http://www.w3.org/2000/svg" xmlns:xlink="http://www.w3.org/1999/xlink">
  <title>952E566C-616B-44FC-9317-5FE6D24975CE</title>
  <desc>Created with sketchtool.</desc>
  <g id="PCF-Public-Site:-JDP-EVP" stroke="none" stroke-width="1" fill="none" fill-rule="evenodd">
    <g id="9386-JDP-PCMC-Benefits_WorldElite-R2-(1)" transform="translate(-740.000000, -3321.000000)">
      <g id="Points" transform="translate(0.000000, 2695.000000)">
        <g id="4" transform="translate(740.000000, 612.000000)">
          <g id="Purse-Icon" transform="translate(0.000000, 14.000000)">
            <circle id="Oval-Copy-6" fill="#EE2E24" cx="47.2285692" cy="47.2285758" r="47.2285714"></circle>
            <path d="M39.9735259,30.7539429 C39.9735259,28.9832037 40.6608091,27.3197157 41.9084251,26.0720997 C43.1560411,24.8244837 44.8173403,24.1372005 46.5902683,24.1372005 C48.3610075,24.1372005 50.0244955,24.8244837 51.2721115,26.0720997 C52.5197275,27.3197157 53.2070107,28.9810149 53.2070107,30.7539429 L53.2070107,33.5884389 L39.9735259,33.5884389 L39.9735259,30.7539429 Z M65.4861787,69.3753189 L63.1748059,35.3526117 C63.1069531,34.3610853 62.2839643,33.5906277 61.2880603,33.5906277 L56.9848795,33.5906277 L56.9848795,30.7539429 C56.9848795,29.3487333 56.7112795,27.9872997 56.1684571,26.7046629 C55.6453339,25.4658021 54.8967643,24.3538917 53.9424475,23.3995749 C52.9881307,22.4452581 51.8762203,21.6966885 50.6373595,21.1735653 C49.3547227,20.6329317 47.9911003,20.3571429 46.5880795,20.3571429 C45.1850587,20.3571429 43.8214363,20.6307429 42.5387995,21.1735653 C41.2999387,21.6966885 40.1880283,22.4452581 39.2337115,23.3995749 C38.2793947,24.3538917 37.5308251,25.4658021 37.0077019,26.7046629 C36.4670683,27.9872997 36.1912795,29.3509221 36.1912795,30.7539429 L36.1912795,33.5884389 L31.8859099,33.5884389 C30.8921947,33.5884389 30.0670171,34.3588965 29.9991643,35.3504229 L27.6899803,69.3753189 C27.6549595,69.8984421 27.8366299,70.4106431 28.1955931,70.7936831 C28.5523675,71.1767231 29.0536027,71.3933925 29.5767259,71.3933925 L63.5994331,71.3933925 C64.1225563,71.3933925 64.6237915,71.1767231 64.9805659,70.7936831 C65.3373403,70.4106213 65.5211995,69.8984421 65.4861787,69.3753189 L65.4861787,69.3753189 Z" id="Fill-1" fill="#FFFFFF"></path>
          </g>
        </g>
      </g>
    </g>
  </g>
</svg>