<?xml version="1.0" encoding="utf-8"?>
<svg id="Layer_1" xmlns="http://www.w3.org/2000/svg" viewBox="0 0 334.7 94.95">
  <defs>
    <style>.cls-4{fill:#fe000c}.cls-5{fill:#0c479d}</style>
    <clipPath id="clip-path">
      <path fill="none" d="M0 0h334.7v94.95H0z" />
    </clipPath>
  </defs>
  <g clip-path="url(#clip-path)">
    <path d="M278.49 57.59a5.14 5.14 0 1 0-5.14-5.14 5.14 5.14 0 0 0 5.14 5.14m-35.44 0a5.14 5.14 0 1 0-5.14-5.14 5.14 5.14 0 0 0 5.14 5.14" fill="#fff" />
    <path class="cls-4" d="M243 37a15.42 15.42 0 1 0 15.42 15.42A15.42 15.42 0 0 0 243 37m0 22.76a7.34 7.34 0 1 1 7.34-7.34 7.34 7.34 0 0 1-7.34 7.37" />
    <path class="cls-5" d="M206.09 67.12H199l-8.56-28.77v28.77h-7.84V27.47h12.48l7.46 25 7.46-25h12.48v39.65h-7.83V38.35l-8.57 28.77m87.82-14.93a15.42 15.42 0 0 1-15.42 15.42 10.56 10.56 0 0 1-7.06-2.83v2.34h-7.82V27.47h7.83v12.16a10.54 10.54 0 0 1 7.06-2.85 15.42 15.42 0 0 1 15.42 15.42m-8.07 0a7.34 7.34 0 1 0-7.34 7.34 7.34 7.34 0 0 0 7.34-7.34M314 67.12h7.83V27.47H314zm-14.91-32.06h7.83v-7.33h-7.83zm0 32.06h7.83V38h-7.83zM329 29.62h-.84v-3.34h-1.24v-.72h3.33v.72H329zm5.66 0h-.79v-3.4l-.75 3.4h-.84l-.75-3.4v3.4h-.79v-4.07H332l.73 3.21.72-3.21h1.23zm-209.88 17.8c0 20.33-25.31 36.85-56.57 36.88S11.59 67.87 11.57 47.53s25.3-36.85 56.57-36.88 56.62 16.43 56.64 36.77M0 47.55C0 73.77 30.57 95 68.22 95s68.15-21.32 68.12-47.54S105.78 0 68.13 0 0 21.33 0 47.55" />
    <path class="cls-4" d="M88.58 43.21c-1.84-.78-3.83-1.91-5.86-2.19a6.63 6.63 0 0 0-3.54.14 1.58 1.58 0 0 0-1 1 1.75 1.75 0 0 0 .14 1.51c1.24 1.49 3.3 1.55 5 2.25a17.39 17.39 0 0 1 3.28 1.78 6.79 6.79 0 0 1 2.61 3.39 8.26 8.26 0 0 1-1.16 7.81c-3.36 4.5-9.35 4.89-14.28 3.36a16.4 16.4 0 0 1-3.54-1.32l-.05-7.24a14.56 14.56 0 0 0 8.11 2.3 3.25 3.25 0 0 0 1.9-.66 1.92 1.92 0 0 0 .36-2.24A2.74 2.74 0 0 0 79 51.83c-3.42-1.44-7.88-2.38-8.88-6.56a9.81 9.81 0 0 1-.11-4.5A7.06 7.06 0 0 1 71.22 38a9.27 9.27 0 0 1 2.91-2.68 9.52 9.52 0 0 1 3.11-1.17 16.89 16.89 0 0 1 11.25 2.14zm-22.26-6.88a16.89 16.89 0 0 0-11.25-2.14A9.58 9.58 0 0 0 52 35.36 9.26 9.26 0 0 0 49.06 38a7 7 0 0 0-1.18 2.77 9.78 9.78 0 0 0 .11 4.5c1 4.17 5.46 5.12 8.88 6.56a2.72 2.72 0 0 1 1.51 1.24 1.92 1.92 0 0 1-.38 2.29 3.29 3.29 0 0 1-1.9.66 14.54 14.54 0 0 1-8.1-2.28v7.24a16.47 16.47 0 0 0 3.55 1.32c4.93 1.54 10.92 1.14 14.28-3.36A8.27 8.27 0 0 0 67 51.13a6.81 6.81 0 0 0-2.61-3.39A17.56 17.56 0 0 0 61.18 46c-1.68-.7-3.73-.76-5-2.25a1.75 1.75 0 0 1-.13-1.5 1.58 1.58 0 0 1 1-1 6.66 6.66 0 0 1 3.54-.14c2 .27 4 1.41 5.86 2.19zm-21-8.45A16.87 16.87 0 0 0 32 26.22a10.39 10.39 0 0 0-6.74 5.59 10 10 0 0 0-.9 4.3c.07 3.3 2.28 6 5 7.66-.37.52-1 .65-1.49 1a9.69 9.69 0 0 0-2.17 2 8.32 8.32 0 0 0-2 4.52 10 10 0 0 0 .39 4.49 11 11 0 0 0 8.48 7 20.46 20.46 0 0 0 5.39.28 19 19 0 0 0 4.07-.8A9.54 9.54 0 0 0 45 61l-1-6.66c-2.71.51-5.57 1.61-8.26.54a3.59 3.59 0 0 1-1.88-4.12A3.64 3.64 0 0 1 36.38 48a18.32 18.32 0 0 1 6.88-.61L43.18 41a18.32 18.32 0 0 1-5.64-.18 4.5 4.5 0 0 1-1.74-.77 3.71 3.71 0 0 1-1.18-1.39 3.34 3.34 0 0 1 0-3.28c2-3.54 6.79-2.08 9.93-.89zm46.5 20.78C92 59.58 97.4 63.25 104 63.13s11.79-4.3 11.6-14.9c-.2-10.92-5.58-14.59-12.13-14.47S91.63 38 91.82 48.66m15.85-.23c.09 4.84-1.62 7.53-4.06 7.58s-4.14-2.58-4.22-7.53 1.51-7.64 3.95-7.68 4.24 2.47 4.34 7.64" />
    <path class="cls-5" d="M138.92 28.48h-.84v-3.34h-1.24v-.72h3.33v.72h-1.24zm5.66 0h-.79v-3.4l-.75 3.4h-.84l-.75-3.4v3.4h-.79v-4.06h1.25l.73 3.21.72-3.21h1.23z" />
  </g>
</svg>