<?xml version="1.0" encoding="UTF-8"?>
<svg width="51px" height="50px" viewBox="0 0 51 50" version="1.1" xmlns="http://www.w3.org/2000/svg" xmlns:xlink="http://www.w3.org/1999/xlink">
  <title>11C915C2-2E45-4803-91C0-6AC00BA39DCC</title>
  <desc>Created with sketchtool.</desc>
  <defs>
    <path d="M18.700169,2.18490547 L21.5548242,17.6538915 C21.7558563,18.7434829 21.0321409,19.789932 19.935511,19.9905934 C19.2932136,20.1089836 18.6197561,19.9033057 18.1573824,19.4377712 L7.23128991,8.57095401 C6.83827223,8.18066762 6.2060264,8.18167092 5.81401388,8.57296062 C5.75370426,8.63115242 5.70344625,8.69335745 5.66223467,8.76258563 L0.486664272,17.2906944 C0.195167784,17.763252 0.345941829,18.3812891 0.818367172,18.6692381 C0.898779996,18.714387 0.979192821,18.7495027 1.05860048,18.7735821 L16.0968038,23.1510102 C17.1622737,23.461032 17.7754215,24.5747027 17.4638218,25.6392113 C17.2728413,26.2973806 16.7602096,26.8120771 16.0968038,27.0037087 L1.05860048,31.3821401 C0.526870684,31.5366494 0.21426583,32.094488 0.376096639,32.6262407 C0.396199845,32.7105185 0.436406257,32.7897797 0.486664272,32.8650277 L5.67329144,41.4031696 C5.95473632,41.8777338 6.57693055,42.0282298 7.05036105,41.741284 C7.11971711,41.7011518 7.18103189,41.6519897 7.23128991,41.5968079 L18.167434,30.8373445 C18.951459,30.0587783 20.2280126,30.0668047 21.0120377,30.8564073 C21.4744114,31.322945 21.6754435,31.9861309 21.5548242,32.6322605 L18.700169,47.9738266 C18.5986478,48.5186223 18.9615107,49.0413452 19.5143488,49.1426792 C19.5746584,49.1527123 19.6349681,49.1587321 19.6952777,49.1587321 L30.1981977,49.1587321 C30.7620926,49.1587321 31.2134096,48.7092506 31.2134096,48.1554252 C31.2134096,48.0631209 31.1943115,47.9708167 31.1742083,47.8795158 L26.8620706,32.8289087 C26.5605225,31.7623934 27.1736703,30.652736 28.2491919,30.3477307 C28.8924944,30.1631222 29.5961067,30.3166282 30.1087384,30.7600898 L42.7938614,41.7111848 C43.2059772,42.0753853 43.8492798,42.0282298 44.2111375,41.6088475 C44.2412923,41.5667086 44.2804935,41.5215598 44.3106483,41.4734011 L49.5183839,32.8941236 C49.8088752,32.4205628 49.6591063,31.803529 49.186681,31.5155799 C49.1062682,31.4664179 49.0158037,31.4282922 48.9152877,31.4032096 L32.3401943,27.0167517 C31.2646728,26.7338192 30.6314218,25.6341948 30.9118615,24.5646696 C31.1038471,23.866368 31.6466337,23.3225756 32.3401943,23.1389705 L48.9152877,18.7535159 C49.4580743,18.6110463 49.7797256,18.0622375 49.6289515,17.5264716 C49.6088483,17.433164 49.5686419,17.344873 49.5183839,17.2626018 L44.3106483,8.69135084 C44.0191519,8.21778997 43.4070092,8.06629063 42.9335787,8.35323641 C42.8843259,8.38433892 42.8340679,8.41744805 42.7938614,8.45657702 L30.1177849,19.5160292 C29.2835018,20.2464366 28.018005,20.1611555 27.284238,19.3274075 C26.8319158,18.815721 26.6801366,18.1124028 26.8620706,17.45925 L31.1742083,2.27821301 C31.3249824,1.74445373 31.0133827,1.19062831 30.4806477,1.03812566 C30.3901833,1.01304299 30.2997189,1 30.2082493,1 L19.6952777,1 C19.1323879,1 18.6901174,1.45048481 18.6901174,2.00330692 C18.6901174,2.06450864 18.6901174,2.12470706 18.700169,2.18490547" id="path-1"></path>
  </defs>
  <g id="Asset-Artboard-Page" stroke="none" stroke-width="1" fill="none" fill-rule="evenodd">
    <g id="Icon/Airplane2-Copy-2-Icon/asterisk" transform="translate(0.993493, 0.000000)">
      <mask id="mask-2" fill="white">
        <use xlink:href="#path-1"></use>
      </mask>
      <use id="Mask" fill="#FFFFFF" xlink:href="#path-1"></use>
      <g id="Color/Green00A0D-Color/Red-EE2E4" mask="url(#mask-2)" fill="#EE2E24">
        <rect id="EE2E24" x="0" y="0" width="50" height="50"></rect>
      </g>
    </g>
  </g>
</svg>