<?xml version="1.0" encoding="UTF-8"?>
<svg width="51px" height="50px" viewBox="0 0 51 50" version="1.1" xmlns="http://www.w3.org/2000/svg" xmlns:xlink="http://www.w3.org/1999/xlink">
  <title>EE9E0556-CA64-45A2-851D-1CEAE8033814</title>
  <desc>Created with sketchtool.</desc>
  <defs>
    <path d="M36.9464789,32.3088385 C34.900845,32.3088385 33.1045784,31.1230017 32.4222438,29.3484316 L32.3290736,29.1307957 L34.8076748,28.0077384 L34.9323585,28.2253744 C35.3968393,29.0987084 35.9229769,29.6902317 36.9464789,29.6902317 C37.7206136,29.6902317 38.5577752,29.1600929 38.5577752,28.1946821 C38.5577752,27.633851 38.3412915,27.3855228 37.8137838,27.0423277 L36.3271711,26.2624656 L35.4900095,25.8271937 C34.1267103,25.0780238 32.9798948,24.330249 32.9798948,22.4608121 C32.9798948,20.3416518 34.7158748,18.596379 36.8848221,18.596379 C38.464605,18.596379 39.7977609,19.4376256 40.5102388,20.9345703 L40.6335523,21.1522062 L38.2481213,22.4301198 L38.1234376,22.1803965 C37.8452972,21.6195654 37.2876462,21.2442829 36.7601385,21.2442829 C36.2641442,21.2442829 35.7064932,21.6502577 35.7064932,22.2124839 C35.7064932,22.8974791 36.5121413,23.3327509 37.5356433,23.8001102 C37.6589568,23.8321975 37.7822703,23.8949771 37.906954,23.9563616 C38.0617809,24.0498335 38.2481213,24.1126131 38.4330915,24.2046898 C39.9210744,24.8924752 41.4392005,25.8885782 41.4707139,27.9142666 C41.4707139,30.376622 39.4867368,32.3088385 36.9464789,32.3088385 L36.9464789,32.3088385 Z M31.8562298,21.8392693 L29.5070208,21.8392693 L29.5070208,25.3056737 L29.5070208,31.8359954 L26.4823292,31.8359954 L26.4823292,25.3056737 L26.4823292,21.8392693 L24.1331202,21.8392693 L24.1331202,19.1513783 L26.4823292,19.1513783 L26.4823292,14.4984023 L29.5070208,14.4984023 L29.5070208,19.1513783 L31.8562298,19.1513783 L31.8562298,21.8392693 Z M24.1331196,25.8695744 C24.101603,29.5699711 21.0349012,32.5428558 17.2597612,32.5428558 C15.8086275,32.5428558 14.4849305,32.1002046 13.3887011,31.374089 L13.3887011,37.8253466 L10.42066,37.8253466 L10.42066,26.3443423 L10.42066,25.9016911 L10.42066,25.2062958 L10.42066,19.2270133 L13.3887011,19.2270133 L13.3887011,20.2393859 C13.421588,20.2393859 13.421588,20.2072693 13.4531046,20.2072693 C14.549334,19.4797573 15.8401441,19.0692228 17.2597612,19.0692228 C21.0677881,19.0692228 24.1331196,22.1049444 24.1331196,25.8053411 L24.1331196,25.8695744 Z M33.0940397,8.66666667 C42.2297913,8.66666667 49.6666667,16.0213482 49.6666667,25.0585734 C49.6666667,34.0930107 42.2297913,41.4504801 33.0940397,41.4504801 L33.0940397,41.4504801 L16.9045869,41.4504801 C7.7702087,41.4504801 0.333333333,34.0930107 0.333333333,25.0585734 C0.333333333,16.0213482 7.7702087,8.66666667 16.9045869,8.66666667 L16.9045869,8.66666667 Z M17.1192757,22.0638975 C15.2212929,22.0638975 13.644423,23.4192023 13.32331,25.1836032 C13.2905155,25.3728449 13.2577209,25.5940908 13.2577209,25.7833325 L13.2577209,25.9405702 C13.32331,27.9902252 15.0286251,29.6293926 17.1192757,29.6293926 C19.2427209,29.6293926 20.948036,27.9902252 20.9808305,25.9099575 L20.9808305,25.8459493 C20.9808305,23.7656816 19.2427209,22.0638975 17.1192757,22.0638975 Z" id="path-1"></path>
  </defs>
  <g id="Asset-Artboard-Page" stroke="none" stroke-width="1" fill="none" fill-rule="evenodd">
    <g id="Icon/Airplane2-Icon/PTS3" transform="translate(0.593493, 0.000000)">
      <mask id="mask-2" fill="white">
        <use xlink:href="#path-1"></use>
      </mask>
      <g id="Mask"></g>
      <g id="Color/Red-EE2E4-Copy-Color/Red-EE2E4" mask="url(#mask-2)" fill="#EE2E24">
        <rect id="EE2E24" x="0" y="0" width="50" height="50"></rect>
      </g>
    </g>
  </g>
</svg>