<?xml version="1.0" encoding="UTF-8"?>
<svg width="51px" height="50px" viewBox="0 0 51 50" version="1.1" xmlns="http://www.w3.org/2000/svg" xmlns:xlink="http://www.w3.org/1999/xlink">
  <title>30372C1A-802C-4C1D-ABDA-397324D8A4B9</title>
  <desc>Created with sketchtool.</desc>
  <defs>
    <path d="M31.8822546,29.2985967 C30.1203499,29.2985967 28.6943817,27.8550094 28.6943817,26.0754856 C28.6943817,24.2959617 30.1203499,22.8547236 31.8822546,22.8547236 C33.6429847,22.8547236 35.0701275,24.2959617 35.0701275,26.0754856 C35.0701275,27.8550094 33.6429847,29.2985967 31.8822546,29.2985967 M12.7526668,29.2985967 C10.9919367,29.2985967 9.5647939,27.8550094 9.5647939,26.0754856 C9.5647939,24.2959617 10.9919367,22.8547236 12.7526668,22.8547236 C14.5145715,22.8547236 15.9405397,24.2959617 15.9405397,26.0754856 C15.9405397,27.8550094 14.5145715,29.2985967 12.7526668,29.2985967 M22.313936,3.53485075 C24.4740312,3.48551742 26.6341264,3.60297774 28.7777771,3.86608885 L28.7777771,3.86608885 L28.7777771,8.27907297 C28.7519358,8.27554916 28.730793,8.27085074 28.7049517,8.26615233 C26.4156502,7.92904122 24.101682,7.78221582 21.7865392,7.82802535 C19.472571,7.78221582 17.1574282,7.92904122 14.8693012,8.26615233 C13.4797457,8.48345392 12.9652695,8.87459677 12.6140632,9.35970788 C11.9879997,10.2394857 10.6289839,13.2065333 9.56479343,15.8341206 C13.6242219,16.2182158 17.6942218,16.4096761 21.7724439,16.4096761 C24.6302534,16.4096761 27.4857136,16.3098349 30.3411739,16.1195491 L30.3411739,16.1195491 L30.4692056,16.1113269 L32.2921897,18.0658666 C32.4507611,18.1915491 32.608158,18.3184063 32.7784754,18.4417396 C33.7616183,19.1605968 34.9279992,19.8336444 36.2588245,20.4667555 C36.3128563,20.4937714 36.3633642,20.518438 36.4185706,20.5454539 C37.2114277,20.9154539 38.0559674,21.2748825 38.9662848,21.6178666 L38.9662848,21.6178666 L39.504253,21.8198983 L40.0574911,21.6671999 C40.5872371,21.5203745 41.0923165,21.3653269 41.5868244,21.2044063 C42.561745,24.7881206 43.0879672,28.4834221 43.0891418,32.2057396 L43.0891418,32.2057396 L43.0891418,38.7658983 C43.0891418,40.0614856 42.0484435,41.1115808 40.7634276,41.1115808 L40.7634276,41.1115808 L37.7517451,41.1115808 C36.4667293,41.1115808 35.4236817,40.0614856 35.4236817,38.7658983 L35.4236817,38.7658983 L35.4236817,36.212311 C31.0635548,36.6410412 26.6940311,36.854819 22.313936,36.854819 C17.9361901,36.854819 13.5654917,36.6410412 9.20536486,36.212311 L9.20536486,36.212311 L9.20536486,38.7658983 C9.20536486,40.0614856 8.16231727,41.1115808 6.87730143,41.1115808 L6.87730143,41.1115808 L3.86679356,41.1115808 C2.58295232,41.1092316 1.54342854,40.0579618 1.54342854,38.7658983 L1.54342854,38.7658983 L1.54342854,32.2057396 C1.54342854,27.9149142 2.2023809,23.6534539 3.49326976,19.5681841 L3.49326976,19.5681841 L2.35507931,19.5681841 C1.06419045,19.5435174 0.0246666661,18.4957714 0,17.194311 L0,17.194311 L0,15.5322476 C0.0152698409,14.273073 1.02425394,13.2523428 2.2763809,13.2358984 L2.2763809,13.2358984 L3.13736501,13.2358984 C4.11933324,13.2852317 5.04726972,13.7033904 5.73911098,14.4069777 C6.83971413,11.626692 8.24453949,8.46700947 9.11844423,7.20078725 C10.6712696,4.96316821 12.9347299,4.32066027 14.5028251,4.04580313 C17.0881266,3.64878726 19.700444,3.4772952 22.313936,3.53485075 Z M49.3333346,8.50224749 L49.3333346,11.6924698 C49.3333346,14.3376762 47.6865409,16.4942477 44.4082233,18.1645334 C43.0715248,18.8469779 41.4705406,19.4483747 39.5888262,19.9687239 L39.5888262,19.9687239 C38.9615881,19.7314541 38.3766357,19.4883112 37.8151754,19.2428192 L37.8151754,19.2428192 L37.8151754,19.2416446 L43.722255,13.7351047 L49.3333346,8.50224749 Z M49.3329798,3.00275548 L49.3329798,5.2908824 L40.6338689,13.4026917 L35.563107,18.1316439 L35.1716155,17.906579 C34.7877955,17.6802293 34.4272658,17.4500805 34.0925039,17.2166281 L34.0925039,17.2166281 L38.4032975,13.1959615 L49.3329798,3.00275548 Z M47.3868993,-7.10542736e-15 L36.903566,9.77622183 L32.9886137,13.4280629 L31.5508994,14.7682851 C30.8813756,13.7957137 30.539566,12.7714598 30.539566,11.6919995 L30.539566,11.6919995 L30.539566,-7.10542736e-15 L47.3868993,-7.10542736e-15 Z" id="path-1"></path>
  </defs>
  <g id="Asset-Artboard-Page" stroke="none" stroke-width="1" fill="none" fill-rule="evenodd">
    <g id="Icon/Airplane2-Copy-Icon/CarShield" transform="translate(0.993493, 0.000000)">
      <g id="Group-11" transform="translate(0.333333, 4.500000)">
        <mask id="mask-2" fill="white">
          <use xlink:href="#path-1"></use>
        </mask>
        <use id="Mask" fill="#FFFFFF" xlink:href="#path-1"></use>
        <g id="Color/Red-EE2E4" mask="url(#mask-2)" fill="#EE2E24">
          <g transform="translate(-0.333333, -4.500000)" id="EE2E24">
            <rect x="0" y="0" width="50" height="50"></rect>
          </g>
        </g>
      </g>
    </g>
  </g>
</svg>