<?xml version="1.0" encoding="utf-8"?>
<!-- Generator: Adobe Illustrator 24.0.1, SVG Export Plug-In . SVG Version: 6.00 Build 0)  -->
<svg version="1.1" id="Layer_1" xmlns="http://www.w3.org/2000/svg" xmlns:xlink="http://www.w3.org/1999/xlink" x="0px" y="0px" viewBox="0 0 50 50" style="enable-background:new 0 0 50 50;" xml:space="preserve">
  <style type="text/css">
	.st0{fill-rule:evenodd;clip-rule:evenodd;fill:#EE2E24;}
	.st1{fill:#FFFFFF;}
</style>
  <title>Icon/Airplane2 Copy 2</title>
  <desc>Created with Sketch.</desc>
  <g id="PCF-Public-Site:-JDP-EVP">
    <g id="_x39_386-JDP-PCMC-Benefits_x5F_WorldElite-R3-Legal" transform="translate(-114.000000, -1807.000000)">
      <g id="Extra-Benefits" transform="translate(-1.000000, 1351.000000)"></g>
    </g>
  </g>
  <circle class="st0" cx="25" cy="24.9" r="24.6" />
  <g id="Path-2">
    <path class="st1" d="M22.2,34.6C22.2,34.6,22.2,34.6,22.2,34.6c-0.8,0-1.5-0.3-2.1-0.9l-7.9-8c-1.1-1.1-1.1-3,0-4.1
		c1.1-1.1,3-1.1,4.1,0l5.8,5.9l11.5-11.6c1.1-1.1,2.9-1.1,4.1,0c1.1,1.1,1.1,2.9,0,4.1L24.2,33.8C23.7,34.3,22.9,34.6,22.2,34.6z" />
  </g>
</svg>