<?xml version="1.0" encoding="UTF-8"?>
<svg width="51px" height="50px" viewBox="0 0 51 50" version="1.1" xmlns="http://www.w3.org/2000/svg" xmlns:xlink="http://www.w3.org/1999/xlink">
  <title>D1D93FAA-B9CF-4EB6-8D06-9B07ED979A0A</title>
  <desc>Created with sketchtool.</desc>
  <defs>
    <path d="M31.216802,40.4417343 C31.216802,45.535947 35.3475217,49.6666667 40.4417343,49.6666667 C45.536972,49.6666667 49.6666667,45.535947 49.6666667,40.4417343 C49.6666667,35.3475217 45.536972,31.216802 40.4417343,31.216802 C35.3475217,31.216802 31.216802,35.3475217 31.216802,40.4417343 L31.216802,40.4417343 Z M38.254822,43.7523815 L36.0079277,41.523127 C35.502325,41.022056 35.502325,40.2039809 36.0079277,39.70291 C36.5135304,39.201839 37.333204,39.201839 37.8388067,39.70291 L38.9828487,40.8379891 L42.643577,37.2077811 C43.1491797,36.7067101 43.9688533,36.7067101 44.474456,37.2077811 C44.9800587,37.708852 44.9800587,38.5269271 44.474456,39.0279981 L39.7108754,43.7523815 C39.3092765,44.151193 38.6564209,44.151193 38.254822,43.7523815 L38.254822,43.7523815 Z M37.3443611,0.333333333 C39.6086324,0.333333333 41.444445,2.21792688 41.444445,4.54471556 L4.54471556,4.54471556 C4.54471556,2.21792688 6.3805281,0.333333333 8.64479939,0.333333333 L37.3443611,0.333333333 Z M45.4552867,12.6666663 L45.4552867,16.7777774 L0.333333333,16.7777774 L0.333333333,12.6666663 C0.333333333,10.3952775 2.17000193,8.55555534 4.43532909,8.55555534 L41.3532909,8.55555534 C43.6186181,8.55555534 45.4552867,10.3952775 45.4552867,12.6666663 L45.4552867,12.6666663 Z M45.4552867,28.149689 C43.8760183,27.4928549 42.1449761,27.1233858 40.327792,27.1233858 C33.3113282,27.1233858 27.5736617,32.5525299 26.9963058,39.4390246 L4.43532909,39.4390246 C2.17000193,39.4390246 0.333333333,37.6019418 0.333333333,35.3338117 L0.333333333,21.9918696 L45.4552867,21.9918696 L45.4552867,28.149689 Z" id="path-1"></path>
  </defs>
  <g id="Asset-Artboard-Page" stroke="none" stroke-width="1" fill="none" fill-rule="evenodd">
    <g id="Icon/Airplane2-Copy-2-Icon/Card1" transform="translate(0.993493, 0.000000)">
      <mask id="mask-2" fill="white">
        <use xlink:href="#path-1"></use>
      </mask>
      <use id="Mask" fill="#EE2E24" xlink:href="#path-1"></use>
      <g id="Color/Green00A0D-Color/Red-EE2E4" mask="url(#mask-2)" fill="#EE2E24">
        <g transform="translate(0.166667, 0.166667)" id="EE2E24">
          <rect x="0" y="0" width="50" height="50"></rect>
        </g>
      </g>
    </g>
  </g>
</svg>