<?xml version="1.0" encoding="UTF-8"?>
<svg width="95px" height="95px" viewBox="0 0 95 95" version="1.1" xmlns="http://www.w3.org/2000/svg" xmlns:xlink="http://www.w3.org/1999/xlink">
  <title>B04519E3-BBAC-40F5-9836-98D6EAE7A88D</title>
  <desc>Created with sketchtool.</desc>
  <g id="PCF-Public-Site:-JDP-EVP" stroke="none" stroke-width="1" fill="none" fill-rule="evenodd">
    <g id="9386-JDP-PCMC-Benefits_WorldElite-R2-(1)" transform="translate(-1041.000000, -3083.000000)">
      <g id="Points" transform="translate(0.000000, 2695.000000)">
        <g id="2" transform="translate(735.000000, 364.000000)">
          <g id="Esso-Icon" transform="translate(306.000000, 24.300000)">
            <circle id="Oval-Copy-7" fill="#EE2E24" cx="47.2285714" cy="47.2285714" r="47.2285714"></circle>
            <path d="M32.6421053,40.2276415 L53.8563285,40.2276415 L53.8563285,25.9624109 L32.6421053,25.9624109 L32.6421053,40.2276415 Z M73.6105876,39.0636254 L71.2116372,30.5893903 C70.9732132,29.747165 70.1034864,29.2595282 69.2686958,29.4996336 L69.2656313,29.5008713 C68.5571012,27.458119 66.9120366,23.3651884 64.2955014,20.5284794 L62.7619874,21.9703494 C65.050613,24.4512321 66.5651266,28.1635833 67.2442367,30.0838076 L65.1560344,30.6865464 C64.3212438,30.9272706 63.8382666,31.805388 64.0760777,32.6476133 L66.475028,41.1218484 C66.714065,41.9640738 67.5837918,42.4517105 68.4179694,42.2109863 L68.73975,42.118162 L68.73975,55.1785338 C68.73975,56.7039457 67.5102419,57.9465529 65.99818,57.9465529 C64.4867309,57.9465529 63.25661,56.7039457 63.25661,55.1785338 L63.25661,37.2102346 C63.25661,34.2151055 60.9557261,31.7571194 58.0449915,31.5306282 L58.0449915,24.7594087 C58.0449915,22.1306259 55.9347242,20 53.331673,20 L33.1667607,20 C30.5630967,20 28.4528294,22.1306259 28.4528294,24.7594087 L28.4528294,66.9777335 L24,66.9777335 L24,74.5571429 L62.4978209,74.5571429 L62.4978209,66.9777335 L58.0456044,66.9777335 L58.0456044,34.7262577 C59.2187242,34.9360405 60.1148063,35.9670085 60.1148063,37.2102346 L60.1148063,55.1797715 C60.1148063,58.4552298 62.7540195,61.1205234 65.9987929,61.1205234 C69.2429534,61.1205234 71.8833924,58.4552298 71.8833924,55.1797715 L71.8833924,41.2121974 L72.5318567,41.0253112 C73.3654215,40.7839681 73.8490116,39.9058508 73.6105876,39.0636254 L73.6105876,39.0636254 Z" id="gas-copy" fill="#FFFFFF"></path>
          </g>
        </g>
      </g>
    </g>
  </g>
</svg>