<?xml version="1.0" encoding="UTF-8"?>
<svg width="95px" height="95px" viewBox="0 0 95 95" version="1.1" xmlns="http://www.w3.org/2000/svg" xmlns:xlink="http://www.w3.org/1999/xlink">
  <title>33E50DD1-90A4-4BC5-A127-69B136B058F0</title>
  <desc>Created with sketchtool.</desc>
  <defs>
    <polygon id="path-1" points="0.000262656 0 38.08512 0 38.08512 44.6511917 0.000262656 44.6511917"></polygon>
  </defs>
  <g id="PCF-Public-Site:-JDP-EVP" stroke="none" stroke-width="1" fill="none" fill-rule="evenodd">
    <g id="9386-JDP-PCMC-Benefits_WorldElite-R2-(1)" transform="translate(-453.000000, -3084.000000)">
      <g id="Points" transform="translate(0.000000, 2695.000000)">
        <g id="1" transform="translate(146.000000, 384.000000)">
          <g id="Apple-icon" transform="translate(307.000000, 5.000000)">
            <circle id="Oval-Copy-9" fill="#EE2E24" cx="47.2285714" cy="47.2285714" r="47.2285714"></circle>
            <g id="apple-copy" transform="translate(27.685714, 24.428571)">
              <mask id="mask-2" fill="white">
                <use xlink:href="#path-1"></use>
              </mask>
              <g id="Clip-2"></g>
              <path d="M18.2657549,8.53566336 C17.9735501,6.94462464 17.1599731,5.53678848 16.0088832,4.4947008 C14.7547008,3.3587136 13.0986547,2.65742208 11.2810752,2.62787328 C11.5739366,4.218912 12.386857,5.62674816 13.5379469,6.66883584 C14.7927859,7.80482304 16.4481754,8.50611456 18.2657549,8.53566336 M18.0037555,11.155657 C12.7828109,10.9573517 8.59673088,6.69247488 8.53632,1.42884864 C8.52844032,0.77549184 9.00319104,0.21603456 9.64866816,0.11622528 C10.1470579,0.0393984 10.6520141,0 11.1622234,0 C15.6490445,0 19.4398272,3.00215808 20.6263757,7.11272448 C21.2462438,6.66095616 21.9606682,6.29652096 22.7506061,6.00956928 C23.6685888,5.67599616 24.6358195,5.46455808 25.6004237,5.34767616 C26.1808934,5.27741568 26.6398848,5.25312 26.92224,5.25312 C27.6471706,5.25312 28.23552,5.84146944 28.23552,6.5664 C28.23552,7.2919872 27.6471706,7.87968 26.92224,7.87968 C26.8861248,7.87968 26.7994483,7.88230656 26.6700902,7.88887296 C26.4448627,7.90069248 26.190743,7.92170496 25.9162675,7.9551936 C25.1368358,8.04974976 24.3587174,8.21916288 23.6475763,8.47787904 C22.6534234,8.83968768 21.8858112,9.34201728 21.4058074,9.98158464 C21.0446554,10.4629018 20.7714931,11.038775 20.5797542,11.695415 C20.2704768,12.7565453 20.198903,13.9109184 20.2770432,14.964169 C20.888375,14.8085453 21.4734413,14.5124006 22.2561562,14.0199206 C22.3625318,13.9529434 22.7460096,13.7086733 22.8162701,13.6646784 C24.8571072,12.3750374 26.3949581,11.81952 28.89216,11.81952 C35.1328666,11.81952 38.08512,16.5295987 38.08512,24.95232 C38.08512,33.7578624 32.7400704,44.65152 26.92224,44.65152 C24.5406067,44.65152 23.0920589,44.4184128 21.6474509,43.9246195 C21.4806643,43.8674918 20.9625754,43.6810061 20.8713024,43.6494874 C20.2212288,43.4249165 19.7688038,43.33824 19.04256,43.33824 C18.3163162,43.33824 17.8645478,43.4249165 17.2138176,43.6494874 C17.121888,43.6810061 16.603799,43.8674918 16.4370125,43.9246195 C14.9930611,44.4184128 13.5445133,44.65152 11.16288,44.65152 C5.34439296,44.65152 0,33.7578624 0,24.95232 C0,16.514496 2.94634368,11.81952 9.19296,11.81952 C11.6895053,11.81952 13.2280128,12.3750374 15.2688499,13.6646784 C15.3384538,13.7086733 15.7212749,13.9529434 15.8283072,14.0199206 C16.540105,14.4670925 17.0883994,14.7527309 17.6412902,14.9182042 C17.5729997,13.7093299 17.6629594,12.417719 18.0037555,11.155657" id="Fill-1" fill="#FFFFFF" mask="url(#mask-2)"></path>
            </g>
          </g>
        </g>
      </g>
    </g>
  </g>
</svg>