<?xml version="1.0" encoding="UTF-8"?>
<svg width="66px" height="65px" viewBox="0 0 66 65" version="1.1" xmlns="http://www.w3.org/2000/svg" xmlns:xlink="http://www.w3.org/1999/xlink">
  <title>3AE88748-915B-4F12-93E1-603EF443B797</title>
  <desc>Created with sketchtool.</desc>
  <defs>
    <path d="M59.3525758,51.2572606 C54.9247035,51.2572606 51.3359089,54.88062 51.3359089,59.3391031 L51.3372451,59.3525729 L14.0597443,59.3525729 L14.0597443,59.3391031 C14.0597443,54.88062 10.4709498,51.2572606 6.04307746,51.2572606 C5.99764968,51.2572606 5.95489412,51.2707303 5.90813023,51.2707303 L5.90813023,35.0935755 C5.95489412,35.0935755 5.99631357,35.1070452 6.04307746,35.1070452 C10.4709498,35.1070452 14.0597443,31.4836858 14.0597443,27.0252027 L51.3359089,27.0252027 C51.3359089,31.4836858 54.9247035,35.1070452 59.3525758,35.1070452 L59.3525758,51.2572606 Z M59.2222222,21.8111106 C62.1736917,21.8111106 64.5666667,24.2027494 64.5666667,27.1555549 L64.5666667,59.2222207 C64.5666667,62.1750262 62.1736917,64.566665 59.2222222,64.566665 L5.77777778,64.566665 C2.82630833,64.566665 0.433333333,62.1750262 0.433333333,59.2222207 L0.433333333,27.1555549 C0.433333333,24.2027494 2.82630833,21.8111106 5.77777778,21.8111106 L59.2222222,21.8111106 Z M54.0079976,11.1222219 C56.9595409,11.1222219 59.3512396,13.4555282 59.3525758,16.3363141 L5.90813023,16.3363141 C5.90813023,13.4555282 8.30116511,11.1222219 11.2513723,11.1222219 L54.0079976,11.1222219 Z M48.5331651,0.433333333 C51.4847267,0.433333333 53.8764402,2.76663956 53.8777764,5.64742546 L11.1222219,5.64742546 C11.1235581,2.76663956 13.5152717,0.433333333 16.4668333,0.433333333 L48.5331651,0.433333333 Z M29.2997238,44.2382928 L27.1018742,42.0179449 C26.1295962,41.0340782 24.5544267,41.0340782 23.5821487,42.0179449 C22.61119,43.0018117 22.61119,44.5839757 23.5821487,45.5678424 L27.4343221,49.4501272 C28.4646465,50.4871759 30.1348012,50.4871759 31.1651256,49.4501272 L39.8536235,40.6883953 C40.8245822,39.7045286 40.8245822,38.1223646 39.8536235,37.1384979 C38.8826647,36.1679267 37.3074952,36.1679267 36.3365364,37.1384979 L29.2997238,44.2382928 Z" id="path-1"></path>
  </defs>
  <g id="Asset-Artboard-Page" stroke="none" stroke-width="1" fill="none" fill-rule="evenodd">
    <g id="Icon/Airplane2-Icon/$" transform="translate(0.480000, 0.000000)">
      <mask id="mask-2" fill="white">
        <use xlink:href="#path-1"></use>
      </mask>
      <use id="Mask" fill="#EE2E24" xlink:href="#path-1"></use>
      <g id="Color/Green00A0D-Color/Red-EE2E4" mask="url(#mask-2)" fill="#EE2E24">
        <g transform="translate(0.216667, 0.216667)" id="EE2E24">
          <rect x="0" y="0" width="65" height="65"></rect>
        </g>
      </g>
    </g>
  </g>
</svg>