<?xml version="1.0" encoding="UTF-8"?>
<svg width="51px" height="50px" viewBox="0 0 51 50" version="1.1" xmlns="http://www.w3.org/2000/svg" xmlns:xlink="http://www.w3.org/1999/xlink">
  <title>04B2662E-739B-452B-BDE4-D2A02081A69F</title>
  <desc>Created with sketchtool.</desc>
  <defs>
    <path d="M9.08639408,15.5766982 L10.372403,10.3727009 C12.2353368,4.34374162 13.2265294,0.333333333 19.1292086,0.333333333 C20.682077,0.333333333 23.1689539,1.47226386 25.6253325,3.28234989 C28.0817112,1.47226386 30.5673173,0.333333333 32.1214565,0.333333333 C38.0241356,0.333333333 39.0153282,4.34374162 40.8782621,10.3727009 L42.1642709,15.5766982 L44.6930829,15.5766982 C46.0960017,15.5766982 47.2333317,16.7143576 47.2333317,18.1176827 C47.2333317,19.5210078 46.0960017,20.6586672 44.6930829,20.6586672 L6.55631137,20.6586672 C5.15466334,20.6586672 4.01733335,19.5210078 4.01733335,18.1176827 C4.01733335,16.7143576 5.15466334,15.5766982 6.55631137,15.5766982 L9.08639408,15.5766982 Z M4.70562955,34.4258565 L21.8206251,43.6130197 C22.6453063,44.0563101 23.1586672,44.9162174 23.1586672,45.8523351 L23.1586672,48.3964921 C23.1586672,49.0976278 22.5906664,49.6666654 21.8879719,49.6666654 C21.8117302,49.6666654 21.7342178,49.6603145 21.6579761,49.6450724 L6.6561469,46.8799053 C5.62815437,46.6919196 4.82126283,45.8929807 4.62176366,44.8666807 L2.85676784,35.7874823 C2.72334483,35.0990484 3.17317098,34.4322074 3.86188785,34.297569 C4.15033569,34.2429516 4.4476784,34.2861375 4.70562955,34.4258565 L4.70562955,34.4258565 Z M45.1637056,34.4258565 C45.4216568,34.2861375 45.7202702,34.2429516 46.0074473,34.297569 C46.6961642,34.4322074 47.1459903,35.0990484 47.0125673,35.7874823 L45.2475715,44.8666807 C45.049343,45.8929807 44.2411808,46.6919196 43.214459,46.8799053 L28.2126298,49.6450724 C28.1363881,49.6603145 28.0588757,49.6666654 27.9813633,49.6666654 C27.2799394,49.6666654 26.7106679,49.0976278 26.7106679,48.3964921 L26.7106679,45.8523351 C26.7106679,44.9162174 27.2252995,44.0563101 28.0499808,43.6130197 L45.1637056,34.4258565 Z M41.6564301,24.8393577 L42.0923355,26.8074217 C42.1785028,28.5215826 41.7223228,30.5123842 40.8479777,31.9486413 C38.6798553,35.5108623 34.0293532,37.039333 29.3142256,32.2101235 C27.8139002,30.6740736 27.0852793,29.3679259 26.7304726,28.0756734 C26.7279382,28.0693574 26.6683814,27.7737689 26.6290992,27.6638706 C26.4846422,27.2583837 26.1006907,26.929952 25.6293046,26.929952 C25.1680559,26.929952 24.7752342,27.2684893 24.6409145,27.6891345 C24.6079682,27.7914537 24.545877,28.0946214 24.545877,28.0946214 C24.1898032,29.3843475 23.4624494,30.6664944 21.9646583,32.1987547 C17.2495307,37.0279642 12.5990286,35.5146519 10.4309062,31.9536941 C9.56036265,30.5237529 9.04209143,28.5986378 9.16627378,26.8074217 L9.62245382,24.8393577 C10.2154879,23.4245749 11.4028232,23.6140548 13.3200465,23.3096238 C14.7772883,23.0771952 18.6028648,23.0266673 18.6028648,23.0266673 L32.6772863,23.0266673 C32.6772863,23.0266673 36.5015956,23.0771952 37.9588374,23.3096238 C39.877328,23.6140548 41.0646632,23.4245749 41.6564301,24.8393577 L41.6564301,24.8393577 Z M22.3182367,35.6560008 L28.7350966,35.6560008 C29.7968791,35.6560008 30.6573334,36.4951611 30.6573334,37.5306675 C30.6573334,38.5649232 29.7968791,39.4053342 28.7350966,39.4053342 L22.3182367,39.4053342 C21.2564541,39.4053342 20.3959999,38.5649232 20.3959999,37.5306675 C20.3959999,36.4951611 21.2564541,35.6560008 22.3182367,35.6560008 L22.3182367,35.6560008 Z" id="path-1"></path>
  </defs>
  <g id="Asset-Artboard-Page" stroke="none" stroke-width="1" fill="none" fill-rule="evenodd">
    <g id="Icon/Airplane2-Copy-Icon/Thief" transform="translate(0.993493, 0.000000)">
      <mask id="mask-2" fill="white">
        <use xlink:href="#path-1"></use>
      </mask>
      <use id="Mask" fill="#FFFFFF" xlink:href="#path-1"></use>
      <g id="Color/Green00A0D-Color/Red-EE2E4" mask="url(#mask-2)" fill="#EE2E24">
        <rect id="EE2E24" x="0" y="0" width="50" height="50"></rect>
      </g>
    </g>
  </g>
</svg>