<?xml version="1.0" encoding="utf-8"?>
<!-- Generator: Adobe Illustrator 22.1.0, SVG Export Plug-In . SVG Version: 6.00 Build 0)  -->
<svg version="1.1" id="Layer_1" xmlns="http://www.w3.org/2000/svg" xmlns:xlink="http://www.w3.org/1999/xlink" x="0px" y="0px" viewBox="0 0 553.6 163.5" style="enable-background:new 0 0 553.6 163.5;" xml:space="preserve">
  <style type="text/css">
	.st0{fill:#EE2E24;}
	.st1{fill:#FFFFFF;}
</style>
  <g>
    <rect x="9.1" class="st0" width="100.1" height="163.5" />
  </g>
  <g>
    <g>
      <g>
        <path class="st1" d="M78.9,122.4c-2.7,0-4.5-2-4.5-4.6c0-2.8,2.1-4.6,4.5-4.6c2.4,0,4.5,1.8,4.5,4.6
				C83.4,120.5,81.3,122.4,78.9,122.4z M78.9,113.9c-2,0-3.6,1.6-3.6,3.8c0,2.1,1.4,3.8,3.6,3.8c2,0,3.5-1.6,3.5-3.8
				C82.4,115.5,80.9,113.9,78.9,113.9z M78,120.4h-0.8v-5.1h1.9c1.2,0,1.9,0.4,1.9,1.5c0,0.9-0.6,1.3-1.3,1.4l1.4,2.2h-1l-1.3-2.2
				H78V120.4z M78.9,117.5c0.6,0,1.2-0.1,1.2-0.8c0-0.6-0.6-0.7-1.1-0.7h-1v1.5H78.9z" />
      </g>
    </g>
  </g>
  <g>
    <path class="st0" d="M54,86.1c-0.8,0.6-1,1,0.2,2.1c10.2,10.3,12.8,20.2,13.5,23.3c1.1,4.6,1.8,8.1,1.9,10.4c0.3,6.7-3.7,6.9-8,3.6
		c-1.3-1-5.5-5.3-8.2-11.2c-2.1-4.5-5.2-13-6.4-19.3c-0.5-2.8-1.2-2.2-2-2.7c-1.4-0.8-2.7-2.8-1.9-4.7c0.6-1.1,1.6-1-0.6-2.6
		c-7.8-5.5-20.4-10-22.7-10.8c-2-0.7-13.8-4.6-17.3-8c-4.2-3.9-3.4-6.8,1.7-10c6.4-4.1,24.1-12.5,37.7-15.8
		c7.2-1.7,17.5-4.1,25.6,1.7c5.2-5.8,10.6-8.5,13.5-9.4c2.8-0.8,5-0.1,6.3,1.5c4.5,5.6-1.3,6.6-3.4,4.6c-0.8-0.8-2.5-0.1-3.8,0.8
		c-2.6,1.7-5.8,3.9-8.7,7.4c2.9,6.1,4.7,17.5-7.8,30.4c2.2,14,13.2,12.1,16,11.3c8.6-2.5,20.3-12.2,32.7-25.1c3.9-4,8.8-0.1,4.6,4.4
		C103.3,83,88.3,92.8,79.5,94.9c-8.8,2.1-16.8,0.3-20.8-12.4C58.7,82.4,56.6,84.2,54,86.1z M64,47.2c-5.8-4.9-16.5-1.8-21.8-0.4
		c-7.4,1.9-17.1,5.6-20.2,7c-3.2,1.4-5.6,2.8-8.3,4.2c-2.1,1.1-7.2,3.4-2.9,5.9c2.1,1.2,4.5,2.1,8.6,3.9c4.4,1.9,10.5,4.3,13.2,5.5
		c2.3,1,7.8,3.6,10,5.1c4.3-2.5,6-0.7,6.9,1.6c0.6,1.4,1.3,0.6,1.8,0.1c1.6-1.4,4.1-3.5,5.4-4.9C54.3,58.3,64,47.2,64,47.2z
		 M67.7,52.2c-3.4,4.3-5.5,12.9-4.9,16.6C69.1,61.7,67.7,52.2,67.7,52.2z M53,95.3c1.2,6.4,5.6,17.3,7.8,20.5
		c0.6,0.8,5.4,6.8,1.1-6.8C59.3,100.9,53,95.3,53,95.3z" />
  </g>
  <g>
    <path class="st1" d="M54,82.6c-0.8,0.6-1,1,0.2,2.1C64.5,95,67,105,67.7,108.1c1.1,4.6,1.8,8.1,1.9,10.4c0.3,6.7-3.7,7-8,3.6
		c-1.3-1-5.5-5.3-8.2-11.2c-2.1-4.5-5.2-13-6.4-19.3c-0.5-2.8-1.2-2.2-2-2.7c-1.4-0.8-2.7-2.8-1.9-4.7c0.6-1.2,1.6-1.1-0.6-2.6
		c-7.8-5.5-20.4-10-22.7-10.8c-2-0.7-13.8-4.6-17.3-8c-4.2-3.9-3.4-6.8,1.7-10c6.4-4.1,24.1-12.5,37.7-15.8
		c7.2-1.7,17.5-4.1,25.6,1.7c5.2-5.8,10.6-8.5,13.5-9.4c2.8-0.8,5-0.1,6.3,1.5c4.5,5.6-1.3,6.6-3.4,4.6c-0.8-0.8-2.5-0.1-3.8,0.8
		c-2.6,1.7-5.8,3.9-8.7,7.4c2.9,6.2,4.7,17.5-7.8,30.5c2.2,14,13.2,12.1,16,11.3c8.6-2.4,20.3-12.2,32.7-25.1c3.9-4,8.8-0.1,4.6,4.4
		c-13.8,14.8-28.8,24.6-37.6,26.7c-8.8,2.1-16.8,0.3-20.8-12.4C58.7,78.9,56.6,80.6,54,82.6z M64,43.7c-5.8-4.9-16.5-1.8-21.8-0.4
		c-7.4,1.9-17.1,5.6-20.2,7c-3.2,1.4-5.6,2.8-8.3,4.2c-2.1,1.1-7.2,3.4-2.9,5.9c2.1,1.2,4.5,2.1,8.6,3.9c4.4,1.9,10.5,4.3,13.2,5.5
		c2.3,1,7.8,3.6,10,5.1c4.3-2.5,6-0.7,6.9,1.6c0.6,1.4,1.3,0.6,1.8,0.1c1.6-1.4,4.1-3.5,5.4-4.9C54.3,54.8,64,43.7,64,43.7z
		 M67.7,48.7c-3.4,4.3-5.5,12.9-4.9,16.6C69.1,58.2,67.7,48.7,67.7,48.7z M53,91.8c1.2,6.4,5.6,17.3,7.8,20.5
		c0.6,0.8,5.4,6.8,1.1-6.8C59.3,97.4,53,91.8,53,91.8z" />
  </g>
  <g>
    <rect x="125.7" class="st0" width="427.8" height="163.5" />
  </g>
  <g>
    <path class="st1" d="M175.6,117.9V65H161V50.1h46.8V65h-14.6v52.9H175.6z" />
    <path class="st1" d="M255,117.9l-16.6-26.1h-0.2v26.1h-17.6V50.1h26.4c13.4,0,23.6,6.4,23.6,20.9c0,9.4-5.2,17.5-14.8,19.2
		l21.3,27.8H255z M239.8,80.5c5.8,0,12.2-1.1,12.2-8.5c0-7.4-6.5-8.5-12.2-8.5h-1.7v16.9H239.8z" />
    <path class="st1" d="M352.8,117.9H334l-4.4-11.8h-24.3l-4.7,11.8h-18.7L308,50.1h19.3L352.8,117.9z M317.4,71.1l-7.3,21.6h14.7
		l-7.2-21.6H317.4z" />
    <path class="st1" d="M396.9,50.1h19.2l-29,67.9h-13.7l-28.5-67.9H364l16.4,41.2L396.9,50.1z" />
    <path class="st1" d="M442.6,76.4h19.9v14.9h-19.9V103h21v14.9H425V50.1h38.6V65h-21V76.4z" />
    <path class="st1" d="M517.8,103v14.9H479V50.1h17.6V103H517.8z" />
  </g>
</svg>