<?xml version="1.0" encoding="UTF-8"?>
<svg width="51px" height="50px" viewBox="0 0 51 50" version="1.1" xmlns="http://www.w3.org/2000/svg" xmlns:xlink="http://www.w3.org/1999/xlink">
  <title>940F9196-EB33-46F6-A53E-9B12EDCC33A0</title>
  <desc>Created with sketchtool.</desc>
  <defs>
    <path d="M44.5113333,12.7306072 C44.4286275,11.0662102 43.7408627,9.41628631 42.4422353,8.15713384 C41.1421569,6.89798136 39.4416078,6.23222259 37.7149412,6.1598575 C34.7520392,6.01368003 31.9734118,4.85728598 29.7621176,2.94684775 C28.4881569,1.84545116 26.8166275,1.16666667 25,1.16666667 C23.1833725,1.16666667 21.5118431,1.84545116 20.2378824,2.94684775 C18.0265882,4.85728598 15.2479608,6.01368003 12.2836078,6.1598575 C10.5569412,6.23222259 8.85784314,6.89798136 7.55776471,8.15713384 C6.25913725,9.41628631 5.57137255,11.0662102 5.48721569,12.7306072 C5.34792157,15.6107375 4.15086275,18.3027187 2.17317647,20.4288049 C1.03270588,21.6749316 0.333333333,23.2814365 0.333333333,25.0471446 C0.333333333,26.8114053 1.03270588,28.4193575 2.17317647,29.664037 C4.15086275,31.8060435 5.34792157,34.4821043 5.48721569,37.363682 C5.57137255,39.0280789 6.25913725,40.6751082 7.55776471,41.9342607 C8.85784314,43.1919659 10.5569412,43.8577247 12.2836078,43.9373262 C15.2479608,44.0733726 18.0265882,45.231214 20.2378824,47.1445468 C21.5118431,48.2502853 23.1833725,48.9276225 25,48.9276225 C26.8166275,48.9276225 28.4881569,48.2502853 29.7621176,47.1445468 C31.9734118,45.231214 34.7520392,44.0733726 37.7149412,43.9373262 C39.4416078,43.8577247 41.1421569,43.1919659 42.4422353,41.9342607 C43.7408627,40.6765555 44.4286275,39.0280789 44.5113333,37.363682 C44.6520784,34.4821043 45.8476863,31.8060435 47.8268235,29.664037 C48.9672941,28.4193575 49.6666667,26.8114053 49.6666667,25.0471446 C49.6666667,23.2814365 48.9672941,21.6749316 47.8268235,20.4288049 C45.8476863,18.3027187 44.6520784,15.6107375 44.5113333,12.7306072 L44.5113333,12.7306072 Z M25.0982736,41.065738 C15.9801371,41.065738 8.58831342,33.9010583 8.58831342,25.0471452 C8.58831342,16.1932321 15.9801371,9.02855237 25.0982736,9.02855237 C34.2164101,9.02855237 41.6082338,16.1932321 41.6082338,25.0471452 C41.6082338,33.9010583 34.2164101,41.065738 25.0982736,41.065738 L25.0982736,41.065738 Z M23.7384399,25.9231092 L22.0545888,24.2508103 C21.3046263,23.5112793 20.1112449,23.5112793 19.3612825,24.2508103 C18.6398357,24.9641889 18.6227263,26.1410457 19.3227863,26.8820296 C19.3356183,26.8965587 19.3484504,26.9096349 19.3612825,26.9256169 L22.3483003,29.8735704 C23.1225011,30.6450654 24.3543786,30.6450654 25.1285795,29.8735704 L31.816933,23.2497556 C32.5398056,22.5378299 32.556915,21.3609731 31.8554292,20.6345183 C31.8425971,20.6185363 31.8297651,20.6054601 31.816933,20.590931 C31.0669705,19.8499472 29.875015,19.8499472 29.1250525,20.590931 L23.7384399,25.9231092 Z" id="path-1"></path>
  </defs>
  <g id="Asset-Artboard-Page" stroke="none" stroke-width="1" fill="none" fill-rule="evenodd">
    <g id="Icon/Airplane2-Icon/Check" transform="translate(0.993493, 0.000000)">
      <mask id="mask-2" fill="white">
        <use xlink:href="#path-1"></use>
      </mask>
      <use id="Mask" fill="#FFFFFF" xlink:href="#path-1"></use>
      <g id="Color/Green00A0D-Color/Red-EE2E4" mask="url(#mask-2)" fill="#EE2E24">
        <rect id="EE2E24" x="0" y="0" width="50" height="50"></rect>
      </g>
    </g>
  </g>
</svg>