<?xml version="1.0" encoding="UTF-8"?>
<svg width="66px" height="65px" viewBox="0 0 66 65" version="1.1" xmlns="http://www.w3.org/2000/svg" xmlns:xlink="http://www.w3.org/1999/xlink">
  <title>8339D692-7CFB-455A-BDA0-AA570F37059A</title>
  <desc>Created with sketchtool.</desc>
  <defs>
    <path d="M34.0556644,10.4917982 C33.5051885,11.0267264 32.9921236,11.6017742 32.5191419,12.2035685 C32.0461602,11.6017742 31.5330954,11.0267264 30.9839556,10.4917982 C23.9693967,3.72495617 12.691322,3.72495617 5.67542702,10.4917982 C-1.24961276,17.1784009 -1.32309862,28.0641902 5.51242203,34.8310321 C5.56586629,34.884525 5.62064666,34.9380178 5.67542702,34.9915106 L31.6600255,59.0499073 C32.1730903,59.5179695 32.9654015,59.5179695 33.4771303,59.0499073 L59.3281181,34.9781374 C66.2518217,28.3049079 66.3212993,17.4057454 59.4831064,10.6389034 C59.4323344,10.5854106 59.3802262,10.545291 59.3281181,10.4917982 C52.3148952,3.75170258 41.0635427,3.75170258 34.0556644,10.4917982 Z" id="path-1"></path>
  </defs>
  <g id="Asset-Artboard-Page" stroke="none" stroke-width="1" fill="none" fill-rule="evenodd">
    <g id="Icon/Airplane2-Copy-2-Icon/Heart" transform="translate(0.480000, 0.000000)">
      <mask id="mask-2" fill="white">
        <use xlink:href="#path-1"></use>
      </mask>
      <use id="Mask" fill="#FFFFFF" xlink:href="#path-1"></use>
      <g id="Color/Green00A0D-Color/Red-EE2E4" mask="url(#mask-2)" fill="#EE2E24">
        <g transform="translate(0.216667, 0.108333)" id="EE2E24">
          <rect x="0" y="0" width="65" height="65"></rect>
        </g>
      </g>
    </g>
  </g>
</svg>