<?xml version="1.0" encoding="UTF-8"?>
<svg width="41px" height="40px" viewBox="0 0 41 40" version="1.1" xmlns="http://www.w3.org/2000/svg" xmlns:xlink="http://www.w3.org/1999/xlink">
  <title>FEFB9082-56D6-4451-AB77-2633D2F469B4</title>
  <desc>Created with sketchtool.</desc>
  <defs>
    <path d="M11.1540311,23.4672286 C11.2925953,23.4627169 11.4338413,23.4852754 11.5724054,23.5385135 C11.6966661,23.5854352 11.8057295,23.6621341 11.9049593,23.7523682 C11.93446,23.7803407 11.9693245,23.8038016 11.9943555,23.8362859 L11.9943555,23.8362859 L13.2441144,25.2701051 L13.514091,25.5814126 C14.1657893,26.3303552 15.0552816,26.7427249 15.9689108,26.8031817 C16.1959772,26.8176192 16.4257254,26.8104004 16.6536857,26.7815255 C17.3366728,26.6949008 18.0017805,26.4079565 18.5587189,25.9143762 L18.5587189,25.9143762 L18.6525849,25.8205328 C18.7357234,25.7429315 18.8197558,25.6653302 18.8966366,25.5796079 L18.8966366,25.5796079 L20.4065385,23.8380905 C20.6952882,23.5015175 21.148527,23.3905296 21.5463401,23.5231737 C21.6786465,23.5673884 21.8046951,23.6386733 21.9164404,23.7361261 C22.0478528,23.8534303 22.1497645,24.0005118 22.2114479,24.1656402 L22.2114479,24.1656402 L23.8071702,28.3949105 L23.81164,28.4075433 C24.1120112,29.20431 24.2666667,30.0498031 24.2666667,30.9043197 L24.2666667,30.9043197 L24.2666667,33.1394173 C24.2666667,33.8179774 24.0673131,34.4442018 23.7392291,34.9819968 C23.1232892,35.9890089 22.0308675,36.6666667 20.772169,36.6666667 L20.772169,36.6666667 L11.6269371,36.6666667 C11.3864613,36.6666667 11.1504553,36.6423035 10.9233889,36.5944794 C10.7687335,36.5628975 10.6239116,36.5078547 10.4773019,36.455519 C10.4084668,36.4311558 10.3342679,36.418523 10.2681147,36.3896481 C10.074125,36.3075351 9.89175671,36.2037659 9.71743411,36.0891687 C9.70402468,36.0792429 9.6870394,36.0738289 9.67452393,36.0639032 C9.26240742,35.7841776 8.92180787,35.4106086 8.66077095,34.9819968 C8.33179291,34.4442018 8.13333333,33.8179774 8.13333333,33.1394173 L8.13333333,33.1394173 L8.1342273,30.8862729 C8.13601522,30.1896659 8.24507859,29.5002777 8.44711402,28.8361551 C8.49181212,28.6917806 8.5347223,28.5483084 8.58925398,28.4066409 L8.58925398,28.4066409 L8.59282983,28.3967152 L10.1894461,24.1656402 C10.3494653,23.7460518 10.7365509,23.4834707 11.1540311,23.4672286 Z M3.99664742,26.294782 L4.1265069,26.38228 L6.83298122,28.3960376 C6.95616626,28.4880274 7.09283872,28.5499612 7.23041034,28.6018762 C7.04833025,29.2371526 6.93743374,29.8914037 6.90552602,30.5525068 L6.89592248,30.949894 L6.89592248,33.2068326 C6.89592248,33.7712625 6.99171064,34.3129411 7.16403496,34.8175296 L7.256486,35.0666667 L2.78675716,35.0666667 C1.37749536,35.0666667 0.225112921,33.9534409 0.138552825,32.5455855 L0.133333333,32.375281 L0.133333333,30.1338257 C0.133333333,29.8992061 0.182247686,29.667501 0.277774541,29.4550319 L0.358123559,29.2995417 L1.77969695,26.8695529 C1.80667177,26.8221918 1.8336466,26.7766522 1.86961304,26.7329343 C2.36044911,26.0454483 3.28935388,25.86624 3.99664742,26.294782 Z M30.5393784,26.733002 L30.5802903,26.7991549 L30.6212021,26.8687235 L31.7802205,28.8517149 C32.0634562,29.3291312 32.2234647,29.8651287 32.2590412,30.4163816 L32.2666665,30.6534406 L32.2666665,32.3759196 C32.2666665,33.8061804 31.1693178,34.9736866 29.7819646,35.061379 L29.6141419,35.0666667 L25.1435139,35.0666667 C25.3415862,34.5747901 25.4656704,34.0440987 25.4970807,33.4872122 L25.5049766,33.2066445 L25.5049766,30.9494774 C25.5049766,30.1533661 25.3889848,29.3645418 25.1704887,28.6030439 C25.2628025,28.5684304 25.3539175,28.5289588 25.440903,28.4792314 L25.5679178,28.3962736 L28.2743921,26.3823122 C28.9928217,25.8458024 30.0088735,26.0024742 30.5393784,26.733002 Z M4.13422005,14.4 C6.34126949,14.4 8.13333333,16.2697671 8.13333333,18.5770616 C8.13333333,20.8825293 6.34126949,23.8666667 4.13422005,23.8666667 C1.9262839,23.8666667 0.133333333,20.8825293 0.133333333,18.5770616 C0.133333333,16.2697671 1.9262839,14.4 4.13422005,14.4 Z M28.2315564,14.5333333 C28.5681886,14.5333333 28.8899231,14.5868518 29.2004269,14.6704097 L29.4312563,14.7383436 L29.4312563,16.6140076 C29.4312563,17.7260826 30.2913522,18.6357787 31.3776728,18.7127804 L31.5271501,18.7180602 L32.2666667,18.7180602 C32.2290641,20.9776688 30.4375718,23.8523081 28.2315564,23.8523081 C26.0031584,23.8523081 24.1937602,20.914727 24.1937602,18.6452276 C24.1937602,16.3730306 26.0031584,14.5333333 28.2315564,14.5333333 Z M16.2036113,6.26666667 C16.5855072,6.26666667 16.9583749,6.30989518 17.3222143,6.38194271 C20.2825849,6.96732887 22.5333333,9.82401332 22.5333333,13.2669845 C22.5333333,16.8837704 20.0514612,21.4921103 16.8698978,22.0702917 C16.8644809,22.0720929 16.8581611,22.0747947 16.8509385,22.0756953 C16.6387741,22.1135203 16.4220955,22.1333333 16.2036113,22.1333333 C15.1608458,22.1333333 14.1785697,21.6830363 13.3109527,20.9571575 C11.2669518,19.2478299 9.86666667,15.9813751 9.86666667,13.2669845 C9.86666667,13.2228554 9.8711808,13.1796269 9.87208363,13.1354978 C9.9208363,10.1968593 11.6082205,7.70671662 13.9691138,6.72236728 C14.6642908,6.43237598 15.4154431,6.26666667 16.2036113,6.26666667 Z M33.8385076,3.33333333 C34.257732,3.33333333 34.5974484,3.66992533 34.5974484,4.08529418 L34.5974484,4.08529418 L34.5974484,8.55409006 L39.1068223,8.55409006 C39.5260468,8.55409006 39.8666667,8.89068206 39.8666667,9.30605091 L39.8666667,9.30605091 L39.8666667,11.6290728 C39.8666667,12.0435465 39.5269503,12.3792433 39.1077258,12.3801385 L39.1077258,12.3801385 L34.5974484,12.3801385 L34.5974484,16.8489343 C34.5974484,17.263408 34.2586355,17.5991048 33.8412181,17.6 L33.8412181,17.6 L31.4939223,17.6 C31.2201615,17.6 30.9924792,17.4496078 30.8578575,17.2338667 C30.7864809,17.1192822 30.7331744,16.9930602 30.7331744,16.8489343 L30.7331744,16.8489343 L30.7331744,15.7147267 C30.7340779,15.7147267 30.7340779,15.7147267 30.7349814,15.7156219 L30.7349814,15.7156219 L30.7349814,12.3801385 L26.2256076,12.3801385 C25.8090936,12.3801385 25.4666667,12.0435465 25.4666667,11.6290728 L25.4666667,11.6290728 L25.4666667,9.30605091 C25.4666667,9.2962038 25.4711842,9.28814708 25.4720877,9.27919516 C25.4838332,8.97124929 25.6807964,8.71343415 25.9554607,8.60780155 C26.0403898,8.57557466 26.1298364,8.55409006 26.2256076,8.55409006 L26.2256076,8.55409006 L30.7349814,8.55409006 L30.7349814,4.08529418 C30.7349814,3.90088473 30.809972,3.73706469 30.9211026,3.60726193 C31.0042247,3.50968606 31.1054168,3.43269959 31.2255825,3.38794001 C31.3096081,3.35481793 31.3990547,3.33333333 31.4939223,3.33333333 L31.4939223,3.33333333 Z" id="path-1"></path>
  </defs>
  <g id="Asset-Artboard-Page" stroke="none" stroke-width="1" fill="none" fill-rule="evenodd">
    <g id="Icon/Airplane2-Copy-Icon/People" transform="translate(0.228000, 0.000000)">
      <mask id="mask-2" fill="white">
        <use xlink:href="#path-1"></use>
      </mask>
      <use id="Mask" fill="#EE2E24" xlink:href="#path-1"></use>
      <g id="Color/Green00A0D-Color/Red-EE2E4" mask="url(#mask-2)" fill="#EE2E24">
        <rect id="EE2E24" x="0" y="0" width="40" height="40"></rect>
      </g>
    </g>
  </g>
</svg>