<?xml version="1.0" encoding="UTF-8"?>
<svg width="80px" height="80px" viewBox="0 0 80 80" version="1.1" xmlns="http://www.w3.org/2000/svg" xmlns:xlink="http://www.w3.org/1999/xlink">
  <title>E6577A06-5D8C-4FBA-A9AE-E2577CEB1F72</title>
  <desc>Created with sketchtool.</desc>
  <g id="PCF-Public-Site:-JDP-EVP" stroke="none" stroke-width="1" fill="none" fill-rule="evenodd">
    <g id="9386-JDP-PCMC-Benefits_WorldElite-Mobile-R3" transform="translate(-273.000000, -5765.000000)">
      <g id="Group-4" transform="translate(0.000000, 5134.000000)">
        <g id="1" transform="translate(23.000000, 626.000000)">
          <g id="makeup" transform="translate(250.000000, 5.000000)">
            <circle id="Oval-Copy-9" fill="#EE2E24" cx="39.7714286" cy="39.7714286" r="39.7714286"></circle>
            <g transform="translate(24.421053, 17.684211)" fill="#FFFFFF">
              <path d="M30.8674641,30.532511 L30.8674641,42.6045736 L21.2390481,42.6045736 L21.2390481,30.532511 L30.8674641,30.532511 Z M13.9439632,0.169717491 C14.3426644,0.169717491 14.6720363,0.465864354 14.7241629,0.850241869 L14.7313492,0.957103427 L14.7313492,1.99710477 L16.1390689,1.99710477 C16.5740156,1.99710477 16.9264548,2.34954402 16.9264548,2.78449071 C16.9264548,3.18319185 16.630308,3.51256381 16.2459305,3.56469037 L16.1390689,3.57187665 L14.7313492,3.57187665 L14.7313492,4.46621669 L17.3232036,4.46621669 C17.7581503,4.46621669 18.1110989,4.81865593 18.1110989,5.25360263 C18.1110989,5.65230376 17.8145241,5.98167572 17.4300752,6.03380229 L17.3232036,6.04098856 L14.7313492,6.04098856 L14.7313492,6.89662141 L17.3232036,6.89662141 C17.7581503,6.89662141 18.1110989,7.24906065 18.1110989,7.68400734 C18.1110989,8.08317534 17.8145241,8.41215825 17.4300752,8.46421673 L17.3232036,8.47139328 L14.7313492,8.47139328 L14.7313492,9.36573332 L16.1390689,9.36573332 C16.5740156,9.36573332 16.9264548,9.71817256 16.9264548,10.1536286 C16.9264548,10.5523297 16.630308,10.8812737 16.2459305,10.9333289 L16.1390689,10.9405052 L14.7313492,10.9405052 L14.7313492,21.1673549 L17.9781702,21.1673549 L17.9781702,42.4277938 L9.97392869,42.4277938 L9.97392869,21.1673549 L13.1565773,21.1673549 L13.1565773,10.9405052 L11.7641367,10.9405052 C11.3281714,10.9405052 10.9767508,10.5885753 10.9767508,10.1536286 C10.9767508,9.7539937 11.2724697,9.42497189 11.6571681,9.37291016 L11.7641367,9.36573332 L13.1565773,9.36573332 L13.1565773,8.47139328 L10.7613146,8.47139328 C10.3263679,8.47139328 9.97392869,8.11895404 9.97392869,7.68400734 C9.97392869,7.28530621 10.2700756,6.95593425 10.6544531,6.90380768 L10.7613146,6.89662141 L13.1565773,6.89662141 L13.1565773,6.04098856 L10.7613146,6.04098856 C10.3263679,6.04098856 9.97392869,5.68854932 9.97392869,5.25360263 C9.97392869,4.85490149 10.2700756,4.52552953 10.6544531,4.47340296 L10.7613146,4.46621669 L13.1565773,4.46621669 L13.1565773,3.57187665 L11.7641367,3.57187665 C11.3281714,3.57187665 10.9767508,3.21943741 10.9767508,2.78449071 C10.9767508,2.38578957 11.2724697,2.05641762 11.6571681,2.00429105 L11.7641367,1.99710477 L13.1565773,1.99710477 L13.1565773,0.957103427 C13.1565773,0.522156733 13.5090165,0.169717491 13.9439632,0.169717491 Z M8.26704303,14.2123331 L8.26704303,42.2974626 L0,42.2974626 L0,14.2123331 L8.26704303,14.2123331 Z M30.8674641,28.3756032 L30.8674641,29.9564867 L21.2390481,29.9564867 L21.2390481,28.3756032 L30.8674641,28.3756032 Z M29.9333982,10.5183421 L29.9333982,27.4771887 L22.1731139,27.4771887 L22.1731139,10.5183421 L29.9333982,10.5183421 Z M6.56137971,11.9153664 L6.56137971,13.3587375 L1.70617263,13.3587375 L1.70617263,11.9153664 L6.56137971,11.9153664 Z M26.050404,0.169819352 C28.9771644,1.54497186 28.4431142,9.46151768 28.4223308,9.75425149 L28.4217293,9.76258398 L23.6785694,9.76258398 C23.2476971,0.816127731 26.0498947,0.169819352 26.050404,0.169819352 Z"></path>
            </g>
          </g>
        </g>
      </g>
    </g>
  </g>
</svg>