<?xml version="1.0" encoding="UTF-8"?>
<svg width="51px" height="50px" viewBox="0 0 51 50" version="1.1" xmlns="http://www.w3.org/2000/svg" xmlns:xlink="http://www.w3.org/1999/xlink">
  <title>B43E61E6-5D16-41E4-A18E-5823B72E83C4</title>
  <desc>Created with sketchtool.</desc>
  <defs>
    <path d="M28.6823125,35.6196742 C29.2359653,35.6810881 29.6350037,36.1796981 29.5735897,36.7333508 C29.1597366,40.4642761 28.2383539,44.0895577 26.843079,47.5292913 C26.6336915,48.0454888 26.0454885,48.2942074 25.529291,48.0848199 C25.0130935,47.8754323 24.7643749,47.2872295 24.9737624,46.771032 C26.2996968,43.5022416 27.1752659,40.0572191 27.5686358,36.5109512 C27.623226,36.0188155 28.0232551,35.6488442 28.5003245,35.6158371 L28.6823125,35.6196742 Z M21.6013275,44.8540344 L21.8677993,44.1130276 C22.0464576,43.5854063 22.6190103,43.3025159 23.1466316,43.4811743 C23.6742528,43.6598326 23.9571432,44.2323854 23.7784849,44.7600067 L23.4932561,45.554002 L22.7359917,47.5065571 C22.5287238,48.0236094 21.9415463,48.2747392 21.4244941,48.0674713 C20.9648921,47.8832332 20.7154017,47.3988196 20.8112043,46.9303043 L20.8635799,46.7559737 L21.6013275,44.8540344 L21.8677993,44.1130276 L21.6013275,44.8540344 Z M24.1666664,15.4072609 C28.3253988,15.4072609 31.8705418,18.3248025 32.7280571,22.31388 L32.808719,22.7404645 C33.4139177,25.707459 33.721185,28.7467802 33.721185,31.825061 C33.721185,36.9837549 32.8580468,42.026049 31.1879172,46.7959726 C31.0038315,47.3217248 30.4283941,47.5987004 29.9026418,47.4146147 C29.3768895,47.2305291 29.0999139,46.6550917 29.2839996,46.1293394 C30.8793665,41.5729398 31.703934,36.7559688 31.703934,31.825061 C31.703934,29.2986225 31.4875223,26.8004996 31.0607274,24.3494819 L30.8167276,23.0585368 C30.283981,19.8281621 27.4774815,17.4245119 24.1666664,17.4245119 C23.3848196,17.4245119 22.6225631,17.5572477 21.9028781,17.8138018 C21.3781723,18.0008495 20.801182,17.7271236 20.6141343,17.2024178 C20.4270866,16.677712 20.7008126,16.1007218 21.2255184,15.9136741 C22.1618678,15.5798831 23.1531788,15.4072609 24.1666664,15.4072609 Z M24.2109454,19.3923925 C26.4686514,19.3923925 28.3983336,20.9862276 28.843788,23.1726048 C28.8537843,23.2216686 28.8600353,23.2706257 28.862737,23.3191798 C29.4995247,26.2060433 29.8246117,29.1718815 29.8246117,32.1792953 C29.8246117,32.7363438 29.3730346,33.1879208 28.8159862,33.1879208 C28.2589377,33.1879208 27.8073607,32.7363438 27.8073607,32.1792953 C27.8073607,29.6244399 27.560835,27.1021913 27.0757518,24.6368256 L26.8532766,23.5837938 C26.8431248,23.5388492 26.8361457,23.4939278 26.8321914,23.4492637 C26.5363517,22.2626205 25.4609391,21.4096435 24.2109454,21.4096435 C22.7137951,21.4096435 21.5001149,22.6233236 21.5001149,24.120474 C21.5001149,24.364737 21.5275002,24.7614563 21.6049708,25.2286219 L21.657645,25.5167188 C21.6680105,25.568546 21.6742033,25.6202393 21.6764555,25.671451 C21.9704263,27.5480076 22.1200243,29.4558906 22.1200243,31.382269 C22.1200243,36.7426314 20.9609303,41.940943 18.7531816,46.6991167 C18.5187248,47.2044215 17.9190295,47.4239873 17.4137246,47.1895305 C16.9084197,46.9550737 16.688854,46.3553784 16.9233108,45.8500735 C19.0082477,41.3565856 20.1027733,36.4478508 20.1027733,31.382269 C20.1027733,29.8904428 20.0079129,28.4108505 19.8200468,26.9494902 L19.6526233,25.783883 C19.5263074,25.0991168 19.4828639,24.5110752 19.4828639,24.120474 C19.4828639,21.5092267 21.5996981,19.3923925 24.2109454,19.3923925 Z M17.4934903,18.4933253 C17.8544147,18.0690181 18.4909707,18.0176363 18.9152778,18.3785608 C19.3395849,18.7394852 19.3909667,19.3760412 19.0300423,19.8003483 C18.0005202,21.0106669 17.4264259,22.5420559 17.4255868,24.1236193 L17.4511995,24.5456686 L17.5114756,25.2167469 C17.5447981,25.5287225 17.5854286,25.83492 17.6339001,26.124567 C17.6904533,26.4625071 17.7551779,26.761011 17.8261005,27.0070075 L17.8990161,27.2350174 C17.9476705,27.3712497 17.9652529,27.5110262 17.9554329,27.6466 C18.1921763,29.1058047 18.3120106,30.5908701 18.3120106,32.090737 C18.3120106,36.7145688 17.1761184,41.3367027 15.1017656,45.3911198 C14.8480435,45.8870312 14.2403455,46.0833644 13.7444342,45.8296423 C13.2485228,45.5759202 13.0521896,44.9682222 13.3059117,44.4723108 C15.2361457,40.6995805 16.2947597,36.3919044 16.2947597,32.090737 C16.2947597,30.9089048 16.2146161,29.7375344 16.0560315,28.5820277 L15.9147239,27.6656914 C15.809444,27.3130637 15.7196789,26.9078574 15.644316,26.4575178 C15.5890044,26.1269972 15.5433297,25.7834953 15.5061375,25.4359276 L15.4391177,24.6895677 L15.409175,24.1647534 C15.409175,22.0585939 16.1565049,20.0651015 17.4934903,18.4933253 Z M35.0763538,19.8927615 C35.6167267,19.7574835 36.16445,20.0858777 36.2997281,20.6262506 C37.2308399,24.3456088 37.7063154,28.1873645 37.7063154,32.0907361 C37.7063154,36.3998906 37.1268218,40.6330638 35.995515,44.7077891 C35.846493,45.2445344 35.2905688,45.5588462 34.7538236,45.4098242 C34.2170783,45.2608023 33.9027665,44.7048781 34.0517885,44.1681328 C35.1344197,40.2687267 35.6890644,36.2170734 35.6890644,32.0907361 C35.6890644,28.3528482 35.23395,24.6756065 34.3428648,21.1161358 C34.2075867,20.5757629 34.5359809,20.0280396 35.0763538,19.8927615 Z M12.6245215,37.627243 L12.8040607,37.6572436 C13.3431017,37.7977351 13.6661898,38.348605 13.5256982,38.8876459 C13.1159507,40.4597733 12.5681666,41.9881356 11.8899701,43.457497 C11.6565259,43.9632705 11.0572716,44.184037 10.5514981,43.9505929 C10.0457246,43.7171487 9.82495804,43.1178944 10.0584022,42.6121209 C10.6866866,41.2508979 11.1941047,39.8351601 11.5736583,38.378881 C11.6985397,37.8997335 12.1476707,37.5912154 12.6245215,37.627243 Z M31.1490597,10.4371907 C31.4340328,9.95855372 32.053061,9.80155807 32.531698,10.0865311 C36.234333,12.2910226 38.9380613,15.8753204 40.0190648,20.0519562 L40.145312,20.5800813 L40.1605212,20.6262845 C40.9577694,24.1232635 41.4073645,27.7084708 41.4974319,31.3447287 L41.5143312,32.7106458 C41.5143312,35.6526399 41.2795969,38.5654054 40.8157893,41.4298889 C40.7267535,41.9797758 40.2088042,42.3533694 39.6589173,42.2643336 C39.1090304,42.1752977 38.7354368,41.6573485 38.8244726,41.1074616 C39.271035,38.3494849 39.4970802,35.5445401 39.4970802,32.7106458 C39.4970802,29.1965532 39.1494884,25.7282761 38.4658356,22.3410275 L38.1986648,21.1005321 L38.1864011,21.0593451 C37.3751496,17.3791385 35.134648,14.1769802 32.0017287,12.1328618 L31.4997193,11.819829 C31.0210823,11.534856 30.8640867,10.9158277 31.1490597,10.4371907 Z M24.0388213,23.2161814 C24.5861937,23.1128062 25.1137289,23.4727371 25.2171041,24.0201095 C25.6887381,26.5174161 25.9280383,29.0676463 25.9280383,31.6479443 C25.9280383,34.7393112 25.5845476,37.7867152 24.9102273,40.7503398 C24.7866395,41.2935055 24.246129,41.6336407 23.7029632,41.510053 C23.1597975,41.3864652 22.8196623,40.8459547 22.94325,40.3027889 C23.5842166,37.4857536 23.9107874,34.5884604 23.9107874,31.6479443 C23.9107874,29.1934066 23.6832471,26.7685021 23.2348932,24.3944641 C23.131518,23.8470917 23.4914489,23.3195566 24.0388213,23.2161814 Z M24.1666666,7.79123179 C25.6279399,7.79123179 27.0647837,7.98292054 28.4502317,8.35750933 C28.9879718,8.50290018 29.3060338,9.05668728 29.160643,9.59442744 C29.0152521,10.1321676 28.461465,10.4502296 27.9237248,10.3048387 C26.7095417,9.97655544 25.4497166,9.8084827 24.1666666,9.8084827 C16.399729,9.8084827 10.0733701,15.9763327 9.81006916,23.8065438 L9.80433287,24.2739338 L9.80756391,24.6377942 L9.83724125,25.0728618 C9.85163803,25.2402951 9.87073728,25.430557 9.89513339,25.6449008 L9.98480674,26.3614317 L10.1476048,27.4780216 C10.452515,28.9855498 10.6074233,30.5284657 10.6074233,32.0907353 C10.6074233,35.1322483 10.0200441,38.093719 8.89244097,40.8501041 C8.68152557,41.3656792 8.09258865,41.6126547 7.57701355,41.4017393 C7.06143845,41.1908239 6.81446297,40.601887 7.02537838,40.0863119 C8.05422771,37.5713268 8.59017234,34.8691808 8.59017234,32.0907353 C8.59017234,30.935831 8.49761713,29.7932402 8.31493707,28.6704011 L8.16106658,27.8320915 L7.98019512,26.589263 C7.83182831,25.4756043 7.77751023,24.7394697 7.7860542,24.2909912 L7.79118763,24.152029 L7.80065225,23.664169 C8.06523973,14.852914 15.291281,7.79123179 24.1666666,7.79123179 Z M12.4562136,7.61769028 C12.9106512,7.29552655 13.540211,7.40275571 13.8623747,7.85719332 C14.1845385,8.31163092 14.0773093,8.94119069 13.6228717,9.26335442 C8.07013983,13.1998438 4.7634175,20.5121337 6.33552012,28.0775111 C6.35187622,28.156221 6.35857698,28.2346938 6.35642927,28.3116991 C6.59223449,29.6369797 6.71085032,30.9893393 6.71085032,32.3564117 C6.71085032,34.082559 6.52173612,35.7848484 6.1503177,37.4415168 C6.02845476,37.9850721 5.48902664,38.3269214 4.94547127,38.2050584 C4.4019159,38.0831955 4.06006664,37.5437674 4.18192958,37.000212 C4.52092593,35.4881585 4.69359931,33.9338593 4.69359931,32.3564117 C4.69359931,31.2793193 4.61309643,30.2128761 4.45402627,29.1630827 L4.32002253,28.3789533 C4.30765599,28.3140058 4.30181626,28.249328 4.30204313,28.1855965 C2.70476574,19.9019669 6.35302398,11.9444148 12.4562136,7.61769028 Z M44.4004277,30.6269561 C44.9569078,30.6017994 45.4284176,31.0325221 45.4535743,31.5890022 C45.4717888,31.9919152 45.480907,32.3953316 45.480907,32.7992036 C45.480907,33.6793093 45.4376068,34.5571918 45.3512511,35.4323522 C45.2965505,35.9867084 44.8028124,36.3917593 44.2484562,36.3370588 C43.6941,36.2823582 43.289049,35.7886201 43.3437496,35.2342638 C43.4236166,34.4248624 43.4636561,33.6130887 43.4636561,32.7992036 C43.4636561,32.4257172 43.4552244,32.0526754 43.4383816,31.6801027 C43.4132248,31.1236226 43.8439476,30.6521128 44.4004277,30.6269561 Z M24.2109461,11.599247 C28.0653072,11.599247 31.6361163,13.3406802 34.0152149,16.2785379 C34.3657829,16.711441 34.2990372,17.3465698 33.8661342,17.6971378 C33.4332311,18.0477059 32.7981023,17.9809602 32.4475343,17.5480571 C30.4474659,15.0782492 27.4501447,13.6164979 24.2109461,13.6164979 C18.3608509,13.6164979 13.6184116,18.3589372 13.6175372,24.1670429 L13.656456,24.7953244 L13.6964969,25.2696392 C13.7260701,25.5839285 13.7614633,25.8926147 13.8030457,26.1851257 C13.8504114,26.5183187 13.9038007,26.8148048 13.9620054,27.0631279 C13.9932916,27.1291729 14.0144557,27.201995 14.0273708,27.2782773 C14.2849815,28.7998472 14.4154379,30.3486895 14.4154379,31.9136198 C14.4154379,32.7669707 14.3766468,33.6157421 14.2995375,34.4581713 C14.248762,35.0129009 13.7579032,35.4214363 13.2031736,35.3706607 C12.6484441,35.3198852 12.2399087,34.8290263 12.2906843,34.2742968 C12.3622,33.492978 12.3981869,32.7055618 12.3981869,31.9136198 C12.3981869,30.7520414 12.3207668,29.6005561 12.1675365,28.4642867 L12.0609575,27.7731025 C11.9597356,27.400717 11.8761025,26.9630595 11.8058738,26.4690374 C11.7596369,26.1437842 11.7207656,25.8052888 11.6884759,25.4625906 L11.6291808,24.7265389 L11.6011607,24.2090326 C11.6011607,17.2448403 17.2467539,11.599247 24.2109461,11.599247 Z M0.930390858,17.5020302 C1.08367815,16.9664875 1.64208523,16.6566082 2.17762798,16.8098955 C2.71317072,16.9631828 3.02305,17.5215898 2.8697627,18.0571326 C2.3062531,20.0258767 2.01725105,22.0755287 2.01725105,24.1647526 C2.01725105,26.6926984 2.44044174,29.161474 3.25914202,31.4963025 C3.44346611,32.0219713 3.16675158,32.5975342 2.64108281,32.7818582 C2.11541404,32.9661823 1.5398511,32.6894678 1.35552701,32.1637991 C0.46186639,29.6151933 0,26.9207944 0,24.1647526 C0,21.8873013 0.315343041,19.6508344 0.930390858,17.5020302 Z M24.1666671,3.89465904 C33.6176205,3.89465904 41.7335022,10.4117925 43.8851885,19.449122 L44.0043127,19.9870099 C44.4302071,21.8926327 44.7594658,23.8173065 44.9923122,25.7613336 L45.1488408,27.2229007 C45.201229,27.7774803 44.7941225,28.2695249 44.2395429,28.321913 C43.6849634,28.3743012 43.1929188,27.9671946 43.1405307,27.4126151 C42.9623536,25.5264383 42.6906646,23.6578649 42.3272481,21.8118906 L42.0357519,20.423671 C40.2776594,12.018231 32.847,5.91191005 24.1666671,5.91191005 C21.7766907,5.91191005 19.452258,6.37091943 17.2876367,7.25230523 C16.771717,7.4623763 16.1831852,7.21443698 15.9731142,6.69851726 C15.7630431,6.18259753 16.0109824,5.59406571 16.5269021,5.38399464 C18.9320667,4.40466494 21.5147467,3.89465904 24.1666671,3.89465904 Z M28.3745238,0.36330897 C39.8480886,2.37840973 48.3333333,12.3855285 48.3333333,24.1647535 C48.3333333,24.721802 47.8817563,25.1733791 47.3247078,25.1733791 C46.7676594,25.1733791 46.3160824,24.721802 46.3160824,24.1647535 C46.3160824,13.3691247 38.5384424,4.19652339 28.0255752,2.35014983 C27.4769243,2.25379033 27.1102696,1.73090605 27.2066291,1.1822551 C27.292282,0.694565361 27.7149421,0.350675156 28.1931442,0.347952326 L28.3745238,0.36330897 Z M23.8459623,8.51534035e-05 C24.4029636,-0.00707796277 24.8603799,0.438583238 24.8677174,0.995584531 C24.8748805,1.55258582 24.4292194,2.01000215 23.8722181,2.01725249 C15.4867943,2.12640339 7.98613622,6.93801494 4.31689107,14.3255357 C4.06909676,14.8244355 3.46378164,15.0279967 2.9648819,14.7802023 C2.46598216,14.532408 2.26242098,13.9270929 2.51021528,13.4281931 C6.51294627,5.36924442 14.6969651,0.119262509 23.8459623,8.51534035e-05 Z" id="path-1"></path>
  </defs>
  <g id="Asset-Artboard-Page" stroke="none" stroke-width="1" fill="none" fill-rule="evenodd">
    <g id="Icon/Airplane2-Icon/Footprints2" transform="translate(0.593493, 0.000000)">
      <g id="Color/Green00A0D" transform="translate(0.833333, 1.000000)">
        <mask id="mask-2" fill="white">
          <use xlink:href="#path-1"></use>
        </mask>
        <use id="Mask" fill="#FFFFFF" fill-rule="nonzero" xlink:href="#path-1"></use>
        <g id="Color/Green00A0D-Color/Red-EE2E4" mask="url(#mask-2)" fill="#EE2E24">
          <g transform="translate(-0.833333, -1.000000)" id="EE2E24">
            <rect x="0" y="0" width="50" height="50"></rect>
          </g>
        </g>
      </g>
    </g>
  </g>
</svg>