<?xml version="1.0" encoding="UTF-8"?>
<svg width="66px" height="65px" viewBox="0 0 66 65" version="1.1" xmlns="http://www.w3.org/2000/svg" xmlns:xlink="http://www.w3.org/1999/xlink">
  <title>0CB763D5-28A7-4EF5-987D-C713033DADB4</title>
  <desc>Created with sketchtool.</desc>
  <defs>
    <path d="M16.4666667,21.7742727 C12.0090773,21.7742727 8.396197,18.1560121 8.396197,13.703803 C8.396197,9.2515939 12.0090773,5.63333333 16.4666667,5.63333333 C20.9242561,5.63333333 24.5371363,9.2515939 24.5371363,13.703803 C24.5371363,18.1560121 20.9242561,21.7742727 16.4666667,21.7742727 M47.2420581,21.7742727 C42.7844686,21.7742727 39.1715884,18.1560121 39.1715884,13.703803 C39.1715884,9.2515939 42.7844686,5.63333333 47.2420581,5.63333333 C51.6996475,5.63333333 55.3125277,9.2515939 55.3125277,13.703803 C55.3125277,18.1560121 51.6996475,21.7742727 47.2420581,21.7742727 M32.4934108,59.2212524 C17.4716335,59.2212524 4.34711875,49.3843158 0.580651576,35.3124037 C-0.0539961381,32.9402814 1.42105876,30.5279536 3.86745868,29.9248717 C6.32187521,29.3083879 8.81771085,30.7289809 9.44968637,33.1011033 C12.1739952,43.2730854 21.6496196,50.3760506 32.4934108,50.3760506 C43.3599158,50.3760506 52.8382124,43.2596836 55.546488,33.0608978 C56.1757913,30.6887755 58.6742992,29.2815843 61.1233713,29.8712644 C63.5724434,30.4743463 65.0501705,32.8866741 64.4222033,35.2587964 C60.6717693,49.370914 47.5432463,59.2212524 32.4934108,59.2212524" id="path-1"></path>
  </defs>
  <g id="Asset-Artboard-Page" stroke="none" stroke-width="1" fill="none" fill-rule="evenodd">
    <g id="Icon/Airplane2-Copy-Icon/Smile" transform="translate(0.480000, 0.000000)">
      <mask id="mask-2" fill="white">
        <use xlink:href="#path-1"></use>
      </mask>
      <use id="Mask" fill="#FFFFFF" xlink:href="#path-1"></use>
      <g id="Color/Green00A0D-Color/Red-EE2E4" mask="url(#mask-2)" fill="#EE2E24">
        <rect id="EE2E24" x="0" y="0" width="65" height="65"></rect>
      </g>
    </g>
  </g>
</svg>