<svg xmlns="http://www.w3.org/2000/svg" viewBox="0 0 159.7 112.7"><path d="M103.2 107.6H56.8C28.3 107.6 5.2 84.5 5.2 56S28.3 4.4 56.8 4.4h46.4c28.5 0 51.6 23.1 51.6 51.6.1 28.5-23.1 51.6-51.6 51.6z" fill="#fff"/><path class="st1" d="M103.2 111.7H56.8c-30.7 0-55.7-25-55.7-55.7S26.1.3 56.8.3h46.4c30.7 0 55.7 25 55.7 55.7s-25 55.7-55.7 55.7zM56.8 8.4C30.6 8.4 9.2 29.8 9.2 56s21.3 47.6 47.6 47.6h46.4c26.2 0 47.6-21.3 47.6-47.6S129.5 8.4 103.2 8.4H56.8z"/><path class="st1" d="M92.5 25.9h-8.6v13.7h-6.8v7.9h6.8v29.4h8.6V47.5h6.7v-7.9h-6.7zM118.6 54c-.5-.2-1.1-.5-1.6-.7-.4-.2-.8-.3-1.1-.5-3-1.3-5.4-2.6-5.4-4.7 0-1.7 1.6-2.8 3.1-2.8 1.6 0 3.2 1.1 4 2.8l.3.7L125 45l-.3-.7c-2.1-4.4-6.1-6.9-10.7-6.9-6.4 0-11.6 5.1-11.6 11.4 0 5.5 3.4 7.7 7.5 10l2.5 1.3 4.4 2.3c1.6 1 2.2 1.8 2.2 3.4 0 2.9-2.5 4.4-4.8 4.4-3 0-4.6-1.7-6-4.3l-.3-.6-7.4 3.3.3.7c2 5.2 7.4 8.8 13.4 8.8 7.5 0 13.4-5.7 13.4-12.9-.1-6.3-4.6-9.2-9-11.2M56.5 68.8c-6 0-10.9-4.8-11-10.8v-.4c0-.6.1-1.2.2-1.7.9-5.2 5.4-9.1 10.8-9.1 6.1 0 11 4.9 11 11v.2c-.1 5.9-5 10.8-11 10.8m0-30.7c-4 0-7.7 1.2-10.8 3.3-.1 0-.1.1-.2.1v-3H37v54.2h8.5V74c3.1 2.1 6.9 3.4 11 3.4 10.8 0 19.5-8.7 19.6-19.4v-.1c0-11-8.7-19.8-19.6-19.8"/></svg>